/* XPM */
static char * ghfaxviewer_icon_xpm[] = {
"32 32 536 2",
"  	c None",
". 	c #0018F7",
"+ 	c #0017EE",
"@ 	c #0017ED",
"# 	c #0018F3",
"$ 	c #0018F0",
"% 	c #0018EF",
"& 	c #0019F8",
"* 	c #0019F9",
"= 	c #0019FC",
"- 	c #2B334A",
"; 	c #333B55",
"> 	c #2B377A",
", 	c #1B2BA5",
"' 	c #353E59",
") 	c #343D57",
"! 	c #1224B9",
"~ 	c #0119F5",
"{ 	c #5260ED",
"] 	c #0C20D4",
"^ 	c #031BF4",
"/ 	c #60699A",
"( 	c #ACB0BB",
"_ 	c #5C6BF8",
": 	c #172DD6",
"< 	c #041CF1",
"[ 	c #38415D",
"} 	c #DAD8D3",
"| 	c #D7D6D2",
"1 	c #D6D5D0",
"2 	c #192AAD",
"3 	c #6C728E",
"4 	c #3043F1",
"5 	c #2539F6",
"6 	c #DFE0EA",
"7 	c #F2F2F2",
"8 	c #CACFEA",
"9 	c #7E8EE1",
"0 	c #CCDACC",
"a 	c #CAD5C6",
"b 	c #5B6BF2",
"c 	c #061EFC",
"d 	c #445071",
"e 	c #353D58",
"f 	c #0018F6",
"g 	c #9EA0CC",
"h 	c #9096CE",
"i 	c #9196CF",
"j 	c #9C9DBF",
"k 	c #3C445B",
"l 	c #495BC9",
"m 	c #C5D2CA",
"n 	c #CAD5E7",
"o 	c #182EF9",
"p 	c #5161F8",
"q 	c #F5F8F5",
"r 	c #D7DCF1",
"s 	c #97A3F5",
"t 	c #EEF4EF",
"u 	c #C6D3C2",
"v 	c #546BD3",
"w 	c #0D25FB",
"x 	c #39425F",
"y 	c #CFCAC8",
"z 	c #2E41EC",
"A 	c #3546EB",
"B 	c #5F6373",
"C 	c #AAB5BB",
"D 	c #7886EC",
"E 	c #F8FAFB",
"F 	c #D3DED5",
"G 	c #7988B3",
"H 	c #031CF8",
"I 	c #4D61BD",
"J 	c #798490",
"K 	c #7685D3",
"L 	c #F7F9F8",
"M 	c #F5F8F7",
"N 	c #576FD1",
"O 	c #0F27F9",
"P 	c #021AF2",
"Q 	c #D5D4CE",
"R 	c #3D4EEB",
"S 	c #2C3EDB",
"T 	c #9599A1",
"U 	c #CBD9CA",
"V 	c #828EF6",
"W 	c #DAE3DA",
"X 	c #8C9785",
"Y 	c #90988E",
"Z 	c #5E6CC7",
"` 	c #021BF9",
" .	c #6D7DCA",
"..	c #6B79CA",
"+.	c #BDCAB9",
"@.	c #C8D6CC",
"#.	c #5269CC",
"$.	c #132AF9",
"%.	c #0F22C7",
"&.	c #3C4DEA",
"*.	c #1A2DCD",
"=.	c #D6DDDB",
"-.	c #BFCFC1",
";.	c #7685EB",
">.	c #AAB5AA",
",.	c #DBDED9",
"'.	c #C8D6CB",
").	c #F1F5F5",
"!.	c #5365F4",
"~.	c #041DF9",
"{.	c #8E9BED",
"].	c #E7EFE4",
"^.	c #ACC19C",
"/.	c #7288D6",
"(.	c #0D25F9",
"_.	c #1D2EAA",
":.	c #0019FA",
"<.	c #2B3DE2",
"[.	c #2C3DD9",
"}.	c #DFE7E2",
"|.	c #AAC1A3",
"1.	c #3B51D0",
"2.	c #DADEE2",
"3.	c #F6F9F9",
"4.	c #EDF3F2",
"5.	c #C7D1C7",
"6.	c #D6DEE3",
"7.	c #3044F6",
"8.	c #7485D3",
"9.	c #FCFEFE",
"0.	c #D9E4DC",
"a.	c #DBE2F0",
"b.	c #132AFA",
"c.	c #6472F0",
"d.	c #142AF1",
"e.	c #2E364E",
"f.	c #0018F5",
"g.	c #061DF1",
"h.	c #3C49BA",
"i.	c #A9ABBE",
"j.	c #EBECEC",
"k.	c #98AADC",
"l.	c #445AE6",
"m.	c #919BF2",
"n.	c #F1F2FA",
"o.	c #F4F9F8",
"p.	c #EDF0ED",
"q.	c #F8F9FB",
"r.	c #DADDF9",
"s.	c #AAB6F2",
"t.	c #E4EBE5",
"u.	c #EFF2F0",
"v.	c #E9F0E6",
"w.	c #D0D4F9",
"x.	c #3346F3",
"y.	c #3649F2",
"z.	c #4E5EF2",
"A.	c #4456F4",
"B.	c #595E6E",
"C.	c #D3D3D1",
"D.	c #EAEAEA",
"E.	c #F9FAF8",
"F.	c #E6EDE5",
"G.	c #FCFCFC",
"H.	c #F9FAF9",
"I.	c #ECF6F6",
"J.	c #FFFEFE",
"K.	c #F4F6F4",
"L.	c #E7F1F0",
"M.	c #F1F7F2",
"N.	c #ECF3ED",
"O.	c #EEF4F1",
"P.	c #FDFDFD",
"Q.	c #FEFEFE",
"R.	c #343C57",
"S.	c #D6D2CA",
"T.	c #D9D5CD",
"U.	c #D0CBC3",
"V.	c #4F5465",
"W.	c #D4D1CC",
"X.	c #EBEAEA",
"Y.	c #FFFFFF",
"Z.	c #F5F9F9",
"`.	c #F0F3F0",
" +	c #E1EBE7",
".+	c #FCFCFB",
"++	c #F9FCFE",
"@+	c #EEF3F0",
"#+	c #D4DFD1",
"$+	c #EDF6F4",
"%+	c #FBFCFC",
"&+	c #EAF2F0",
"*+	c #EDEDEC",
"=+	c #333C56",
"-+	c #CFC9C0",
";+	c #D5CFC6",
">+	c #D7D0C8",
",+	c #585C6C",
"'+	c #D0CECC",
")+	c #E1E1E1",
"!+	c #E1EAE4",
"~+	c #E0E9E1",
"{+	c #EFF4F3",
"]+	c #F9FBFB",
"^+	c #FCFDFE",
"/+	c #EFF6F7",
"(+	c #EDF2ED",
"_+	c #EAF2EB",
":+	c #F1EFED",
"<+	c #2E354D",
"[+	c #BFBBB3",
"}+	c #C9C4BC",
"|+	c #D5CFC7",
"1+	c #DBD4CC",
"2+	c #70737E",
"3+	c #A2A2A3",
"4+	c #D6D6D4",
"5+	c #F7FAFA",
"6+	c #F9FAFB",
"7+	c #EAF1F1",
"8+	c #F8FAFA",
"9+	c #FCFDFC",
"0+	c #E5EEE1",
"a+	c #E4EAE1",
"b+	c #E9EEED",
"c+	c #EDF2F2",
"d+	c #ECECEB",
"e+	c #EAE8E4",
"f+	c #EEEDE9",
"g+	c #FDFDFC",
"h+	c #2B3249",
"i+	c #E4E2DB",
"j+	c #DAD8D1",
"k+	c #C3C0B8",
"l+	c #95948C",
"m+	c #C6C2BA",
"n+	c #A3A4A7",
"o+	c #7B7D88",
"p+	c #E0DFDD",
"q+	c #F7F9F9",
"r+	c #FCFDFD",
"s+	c #E3EEF0",
"t+	c #F9FBFA",
"u+	c #D9DFD9",
"v+	c #C7CFC4",
"w+	c #F5F9F8",
"x+	c #F5F4F4",
"y+	c #EDEAE7",
"z+	c #F0EEEB",
"A+	c #CCCBC4",
"B+	c #E0DED8",
"C+	c #EAE6DE",
"D+	c #EEE8E1",
"E+	c #707168",
"F+	c #6F7067",
"G+	c #DFDAD3",
"H+	c #535869",
"I+	c #D1D0CF",
"J+	c #F3F6F3",
"K+	c #F1F6F6",
"L+	c #EDF3F3",
"M+	c #F9FCFC",
"N+	c #EAF0ED",
"O+	c #E3EDE7",
"P+	c #F9F9F8",
"Q+	c #E9E8E5",
"R+	c #E7E4DE",
"S+	c #EDECE8",
"T+	c #A7A7A0",
"U+	c #CAC7BF",
"V+	c #E9E6DF",
"W+	c #F1EBE3",
"X+	c #CDC8C1",
"Y+	c #5B5D53",
"Z+	c #918F84",
"`+	c #9E9EA5",
" @	c #777A86",
".@	c #FAFAFA",
"+@	c #F1F6F5",
"@@	c #EEF6F6",
"#@	c #E6F0F0",
"$@	c #E6F0ED",
"%@	c #E5F0EE",
"&@	c #FBFDFD",
"*@	c #FBFBFA",
"=@	c #E4E3E0",
"-@	c #EAE7E2",
";@	c #E9E7E2",
">@	c #B6B5B6",
",@	c #B3B1A9",
"'@	c #E3DDD5",
")@	c #EFE8E2",
"!@	c #F0EAE3",
"~@	c #CBC8BF",
"{@	c #73746B",
"]@	c #646977",
"^@	c #ADAEB4",
"/@	c #FDFEFE",
"(@	c #F3FBFC",
"_@	c #E4ECED",
":@	c #CCDBDC",
"<@	c #B1BEB7",
"[@	c #FAF9F9",
"}@	c #FAF7F5",
"|@	c #F7F5F3",
"1@	c #EEEBE7",
"2@	c #E9E5E0",
"3@	c #D2CDC9",
"4@	c #5C606F",
"5@	c #D2CFC8",
"6@	c #CEC8C0",
"7@	c #EBE6DE",
"8@	c #EDE8E2",
"9@	c #ECE5DE",
"0@	c #BAB5AB",
"a@	c #6A6B62",
"b@	c #DBD6D2",
"c@	c #AAABB3",
"d@	c #AAACB3",
"e@	c #FDFCFC",
"f@	c #FAF9F7",
"g@	c #F4F3F0",
"h@	c #E8E9E7",
"i@	c #E5E7E4",
"j@	c #EDEBE7",
"k@	c #E1E0DC",
"l@	c #C9C8C5",
"m@	c #BDBFBB",
"n@	c #C8C5C3",
"o@	c #5A5E6D",
"p@	c #C0BEBC",
"q@	c #DFDBD3",
"r@	c #EFE8E3",
"s@	c #D0CAC4",
"t@	c #3A3A3B",
"u@	c #6E6F71",
"v@	c #DDD9D5",
"w@	c #707481",
"x@	c #717582",
"y@	c #DEDCDC",
"z@	c #EBEAE7",
"A@	c #DCDCD9",
"B@	c #D1D2D0",
"C@	c #C4C6C4",
"D@	c #BEBFBC",
"E@	c #B0B2B0",
"F@	c #A2A6A3",
"G@	c #8F928F",
"H@	c #929693",
"I@	c #A3A5A2",
"J@	c #9A9AA1",
"K@	c #5D616F",
"L@	c #C9C9C5",
"M@	c #DFDDD6",
"N@	c #C8C5BE",
"O@	c #C9C5BD",
"P@	c #EBE5DE",
"Q@	c #C8C2BE",
"R@	c #404044",
"S@	c #2D3039",
"T@	c #43464B",
"U@	c #CFC7BF",
"V@	c #E1DCD5",
"W@	c #B1B0B3",
"X@	c #54596A",
"Y@	c #6C717E",
"Z@	c #888D92",
"`@	c #989E9F",
" #	c #9CA09F",
".#	c #9EA19E",
"+#	c #9DA19E",
"@#	c #9DA2A1",
"##	c #8E9396",
"$#	c #6E727C",
"%#	c #555A6A",
"&#	c #929398",
"*#	c #BDBAB2",
"=#	c #AEABA1",
"-#	c #C6C5BE",
";#	c #BFBAB1",
">#	c #A9A5A0",
",#	c #35373D",
"'#	c #303440",
")#	c #77787B",
"!#	c #585C53",
"~#	c #A7A49A",
"{#	c #C9C2B7",
"]#	c #B2ADA4",
"^#	c #DAD4CD",
"/#	c #BBB9BA",
"(#	c #838691",
"_#	c #585D6E",
":#	c #4E5465",
"<#	c #4B5062",
"[#	c #4C5162",
"}#	c #5B606F",
"|#	c #71747E",
"1#	c #A5A3A4",
"2#	c #D6CFC9",
"3#	c #D9D3CB",
"4#	c #A6A399",
"5#	c #C0BBB2",
"6#	c #9A9992",
"7#	c #777775",
"8#	c #2E3139",
"9#	c #383B48",
"0#	c #7D7E7F",
"a#	c #CBC4BB",
"b#	c #61645C",
"c#	c #8C8A80",
"d#	c #C8C1B9",
"e#	c #B8B3A9",
"f#	c #D4CEC5",
"g#	c #D6CFC7",
"h#	c #D6D1C9",
"i#	c #D7D1C8",
"j#	c #D8D0C7",
"k#	c #D6D0C8",
"l#	c #D7D1C9",
"m#	c #D7D2C9",
"n#	c #D8D2CA",
"o#	c #CDCBC3",
"p#	c #A8A69C",
"q#	c #565658",
"r#	c #2F323D",
"s#	c #3E4250",
"t#	c #7F7F7E",
"u#	c #828179",
"v#	c #A29E94",
"w#	c #7A7B72",
"x#	c #939086",
"y#	c #C9C2B9",
"z#	c #C4BCB3",
"A#	c #D2CAC0",
"B#	c #D2C9BF",
"C#	c #D3CABF",
"D#	c #D3CBC0",
"E#	c #D3CCC1",
"F#	c #D3CCC3",
"G#	c #A6A39A",
"H#	c #8C8C83",
"I#	c #6E6F66",
"J#	c #959489",
"K#	c #DBD7CE",
"L#	c #2D303A",
"M#	c #313643",
"N#	c #434856",
"O#	c #A4A2A0",
"P#	c #B8B2A9",
"Q#	c #9C998F",
"R#	c #C7BFB7",
"S#	c #969389",
"T#	c #A6A198",
"U#	c #D2CBC1",
"V#	c #D0C8BE",
"W#	c #CEC8BE",
"X#	c #D2CBC0",
"Y#	c #D4CBC0",
"Z#	c #D0C9BF",
"`#	c #C1BAB0",
" $	c #918F85",
".$	c #828177",
"+$	c #87867C",
"@$	c #949288",
"#$	c #A19C92",
"$$	c #B2ADA5",
"%$	c #CCC7BF",
"&$	c #2F333E",
"*$	c #343949",
"=$	c #393F52",
"-$	c #A6A4A0",
";$	c #9F9B94",
">$	c #BCB8B0",
",$	c #B0ACA4",
"'$	c #B1ADA4",
")$	c #818075",
"!$	c #BBB4AA",
"~$	c #CEC6BD",
"{$	c #C3BCB3",
"]$	c #78786E",
"^$	c #AAA79E",
"/$	c #929188",
"($	c #828176",
"_$	c #818178",
":$	c #908E85",
"<$	c #9A988F",
"[$	c #A29F95",
"}$	c #AEA99F",
"|$	c #BAB6AD",
"1$	c #D1CDC6",
"2$	c #373D4E",
"3$	c #3A4256",
"4$	c #C4BFB7",
"5$	c #ACA9A0",
"6$	c #C9C1B8",
"7$	c #CBC3BA",
"8$	c #B3ACA2",
"9$	c #828279",
"0$	c #86857C",
"a$	c #98958C",
"b$	c #A49F94",
"c$	c #ABA69C",
"d$	c #B1AEA5",
"e$	c #ABA79D",
"f$	c #9D9B93",
"g$	c #99978E",
"h$	c #A9A59C",
"i$	c #343948",
"j$	c #394054",
"k$	c #BEB8B0",
"l$	c #B2AEA4",
"m$	c #D0C9BE",
"n$	c #AAA69C",
"o$	c #939187",
"p$	c #AEAAA1",
"q$	c #BCB5AD",
"r$	c #C6BFB7",
"s$	c #CCC5BD",
"t$	c #CDC7BF",
"u$	c #9A9890",
"v$	c #A3A097",
"w$	c #BEB7AE",
"x$	c #CBC5BD",
"y$	c #CFC8BF",
"z$	c #3C4359",
"A$	c #BBB7B0",
"B$	c #D0CAC1",
"C$	c #D1CCC4",
"D$	c #D8D2C9",
"E$	c #D0CCC3",
"F$	c #CCC8C0",
"G$	c #D4D0C7",
"H$	c #DCD8D0",
"I$	c #E2DED7",
"J$	c #E0DAD2",
"K$	c #E4DFD8",
"        . + @ #         #             $     % #           #     ",
"    # &         *       & =     - ; > , ' ) ! ~           &     ",
"    =             {       ] ^ / (     _     : < [         =     ",
"  . *         } | 1     2 3 4 5 6 7 8 9 0 a b c   d e     =     ",
"  . f         g h i j k l m n o p q r s t u v w       x   =     ",
"  . f         y z A B C D E F G H I J K L M N O         x P     ",
"  * *         Q R S T U V W X Y Z `  ...+.@.#.$.          %.    ",
"    =           &.*.=.-.;.>.,.'.).!.~.{.].^./.(.          _.    ",
"    f :.        <.[.}.|.1.2.3.4.5.6.7.8.9.0.a.b.c.      d.  e.  ",
"        f.% @ g.h.i.j.k.l.m.n.o.p.q.r.s.t.u.v.w.x.y.z.A.    e   ",
"                B.C.D.E.F.G.H.I.J.K.L.M.N.O.P.Q.D.          R.  ",
"          S.T.U.V.W.X.Y.Z.`. +.+++@+#+$+%+&+Y.Y.*+          =+  ",
"          -+;+>+,+'+)+Q.!+~+{+]+^+/+%+^+(+_+J.Y.*+:+.+      <+  ",
"        [+}+|+1+2+3+4+Y.G.5+6+7+8+9+0+a+b+c+Y.Y.d+e+f+g+    h+  ",
"      i+j+k+l+m+n+o+p+Y.Y.q+3.r+s+P.t+u+v+w+Y.Y.x+y+e+z+    h+  ",
"    A+B+C+D+E+F+G+H+I+P.Y.Q.J+9+K+L+M+N+O+Y.Y.Y.P+Q+R+S+  h+    ",
"    T+U+V+W+X+Y+Z+`+ @.@Y.Y.G.+@%+@@#@$@%@&@Y.Y.*@=@-@;@>@h+    ",
"      ,@'@)@!@~@{@~@]@^@Y.Y.Y.Q./@(@_@:@<@3.[@}@|@1@2@3@4@      ",
"      5@6@7@8@9@0@a@b@c@d@Q.e@.+[@f@g@h@i@j@k@l@m@-@n@o@p@      ",
"        U+q@8@r@s@t@u@v@w@x@y@z@A@B@C@D@E@F@G@H@I@J@K@L@M@      ",
"        N@O@P@Q@R@S@T@U@V@W@X@Y@Z@`@ #.#+#@###$#%#&#*#=#        ",
"        -#;#>#,#'#)#!#~#{#]#^#/#(#_#:#<#[#}#|#1#2#3#4#5#        ",
"        6#7#8#9#0#a#b#c#d#e#f#g#h#i#j#>+k#g#l#m#n#o#p#n#        ",
"        q#r#s#t#u#v#w#x#y#z#A#A#B#C#D#E#f#F#;#G#H#I#J#K#        ",
"      L#M#N#O#P#Q#R#S#T#U#V#W#X#Y#Z#`#~# $.$+$@$#$$$%$          ",
"    &$*$=$-$;$>$,$'$)$!$~${$]$^$/$($_$:$<$[$}$|$1$              ",
"  M#2$3$    ,@4$5$.$#$6$7$8$9$0$a$b$c$d$e$f$g$h$                ",
"i$j$              k$l$m$n$o$p$q$r$s$t$u$v$w$x$y$m#              ",
"z$                  A$B$B$C$            D$E$F$G$H$I$            ",
"                                            J$K$                ",
"                                                                ",
"                                                                "};
