/* XPM */
static char * ghfaxviewer_icon_xpm[] = {
"32 32 13 1",
" 	c None",
".	c #E5E5E5",
"+	c #CCCCCC",
"@	c #FFFFFF",
"#	c #B2B2B2",
"$	c #999999",
"%	c #333333",
"&	c #0000FF",
"*	c #7F7F7F",
"=	c #4C4C4C",
"-	c #666667",
";	c #007F7F",
">	c #7F7F00",
"    &&&&    &      &  &&     &  ",
"  &&    &   &&  %%%&%=%&     &  ",
"  &      &  &%&-#  &  %&=    &  ",
" &&    +.+  &*=&.@+&.+*& =%  &  ",
" &&    $$$$=&++&-..&@+;&   = &  ",
" &&    +&&-#&@+$&;*&@@*&    =&  ",
" &&    +=&$+&.*$-&*&++;&     &  ",
"  &     =&.+&#..@;&&.#$&     &  ",
"  &&    &%.#&...+.=&@..&*   & % ",
"    &&&&;#.#&$@@.@.&...+&&&&  % ",
"        -+.@.@@.@@.@@@@@.     % ",
"     +++=+.@@..@@...@.@@.     % ",
"     +++-+.@..@@@.@@..@@.@@   % ",
"    #+++*$+@@.@.@@..@.@@...@  % ",
"   ..+$+$*.@@@@@.@..+@@@@...  % ",
"  +...--.=+@@@.@@.@..@@@@... %  ",
"  $+..+-$$*@@@@.@....@@@@...#%  ",
"   #...+-+-$@@@@@@..#@@@.@.+-   ",
"   ++...#-.##@@.@@.....+#.+-#   ",
"    +...+%-+--...++###*$#$-+.   ",
"    ++.+=%=+.#=-$$$#$$$-=$##    ",
"    +#$%%*-$+#.#*;===-*#++##    ",
"    $*%%*#-*+#+++++.++++++$+    ",
"    =%=**$*$+#++++++++##**$.    ",
"   %%=$#$+$$++++++##$**$$#+     ",
"  %%%#$###*#+###$***$$##+       ",
" %=%  #+$#$++#**$$###$$$        ",
"%%       ##+$$###++$$#+++       ",
"=         #+++      ++++..      ",
"                      ..        ",
"                                ",
"                                "};
