/* XPM */
static char * info_xpm[] = {
"36 36 348 2",
"  	c None",
". 	c #384361",
"+ 	c #646C83",
"@ 	c #8B91A2",
"# 	c #FFFFFF",
"$ 	c #FCFCFF",
"% 	c #FAFAFD",
"& 	c #F8F8FB",
"* 	c #F6F6F9",
"= 	c #F9F9FC",
"- 	c #F4F4FF",
"; 	c #F1F1FD",
"> 	c #E6E6F2",
", 	c #CACAD5",
"' 	c #A8A8B1",
") 	c #92929A",
"! 	c #8B8B92",
"~ 	c #8D8D94",
"{ 	c #93939B",
"] 	c #C7C7D1",
"^ 	c #E3E3EF",
"/ 	c #F3F3FF",
"( 	c #EDEDF8",
"_ 	c #C4C4CE",
": 	c #8C8C93",
"< 	c #A4A5AE",
"[ 	c #8F92A2",
"} 	c #696E8C",
"| 	c #4E557C",
"1 	c #484F75",
"2 	c #52587A",
"3 	c #5D6176",
"4 	c #747682",
"5 	c #ACACB5",
"6 	c #DEDEE9",
"7 	c #F4F4F4",
"8 	c #ACACB4",
"9 	c #8A8A91",
"0 	c #9396AE",
"a 	c #464D83",
"b 	c #2F33BA",
"c 	c #0E10E6",
"d 	c #0303F9",
"e 	c #0000FF",
"f 	c #1315E3",
"g 	c #484CB1",
"h 	c #4E5477",
"i 	c #777A88",
"j 	c #BFBFC9",
"k 	c #ECECF8",
"l 	c #F9F9F9",
"m 	c #BCBCBC",
"n 	c #909097",
"o 	c #C8C8D4",
"p 	c #5C6190",
"q 	c #2C30C7",
"r 	c #0203F9",
"s 	c #0000FC",
"t 	c #4246AE",
"u 	c #595D76",
"v 	c #AAAAB3",
"w 	c #E9E9F5",
"x 	c #FEFEFE",
"y 	c #DADADA",
"z 	c #959595",
"A 	c #C9C9D3",
"B 	c #53598C",
"C 	c #171AD7",
"D 	c #272BC1",
"E 	c #626581",
"F 	c #B4B4BD",
"G 	c #B9B9B9",
"H 	c #BDBDBD",
"I 	c #989BB2",
"J 	c #2D32C5",
"K 	c #7171FF",
"L 	c #F6F6FF",
"M 	c #6060FF",
"N 	c #3134B0",
"O 	c #8E8F9D",
"P 	c #BDBDC7",
"Q 	c #EFEFFB",
"R 	c #8A90A2",
"S 	c #EDEDED",
"T 	c #A5A5A5",
"U 	c #D7D7D7",
"V 	c #474D90",
"W 	c #0101FC",
"X 	c #5252FF",
"Y 	c #C8C8FF",
"Z 	c #4444FF",
"` 	c #0000FB",
" .	c #4F5385",
"..	c #A2A2AA",
"+.	c #D7D7E2",
"@.	c #F2F2FE",
"#.	c #E2E2E2",
"$.	c #9F9F9F",
"%.	c #B4B6BC",
"&.	c #3134CB",
"*.	c #1F1FFF",
"=.	c #3C3CFF",
"-.	c #5B5BFF",
";.	c #2727FF",
">.	c #3C40A0",
",.	c #ACADB9",
"'.	c #ADADB6",
").	c #EDEDF9",
"!.	c #E1E1E1",
"~.	c #A4A4A4",
"{.	c #8285A3",
"].	c #0D0FED",
"^.	c #5151FF",
"/.	c #CACAFF",
"(.	c #6161FF",
"_.	c #3739C5",
":.	c #A5A7B5",
"<.	c #9A9AA2",
"[.	c #E6E6E6",
"}.	c #ADADAD",
"|.	c #666A98",
"1.	c #0607F3",
"2.	c #6262FF",
"3.	c #2224D0",
"4.	c #A2A4B4",
"5.	c #9F9FA7",
"6.	c #8A91A2",
"7.	c #F1F1F1",
"8.	c #686C9A",
"9.	c #0203F4",
"0.	c #3032C2",
"a.	c #B0B3C2",
"b.	c #A6A6AF",
"c.	c #B9B9C3",
"d.	c #FBFBFB",
"e.	c #BFBFBF",
"f.	c #72749D",
"g.	c #0A0BD0",
"h.	c #40449B",
"i.	c #D4D5E2",
"j.	c #A4A4AD",
"k.	c #9B9CA0",
"l.	c #292D93",
"m.	c #0101F8",
"n.	c #595E89",
"o.	c #E8E8F4",
"p.	c #9898A0",
"q.	c #BCBCC6",
"r.	c #BABABA",
"s.	c #5B5E83",
"t.	c #0B0DD2",
"u.	c #6868FF",
"v.	c #2F33A5",
"w.	c #B6B8CA",
"x.	c #87878E",
"y.	c #CFCFDA",
"z.	c #EEEEEE",
"A.	c #9898A1",
"B.	c #424777",
"C.	c #0F10E6",
"D.	c #D7D7FF",
"E.	c #F5F5FF",
"F.	c #D5D5FF",
"G.	c #6969FF",
"H.	c #2627D5",
"I.	c #6E7193",
"J.	c #D8D8E3",
"K.	c #9D9DA4",
"L.	c #86868D",
"M.	c #D3D3DE",
"N.	c #E0E0EB",
"O.	c #F0F0FC",
"P.	c #DDDDE8",
"Q.	c #E7E7F2",
"R.	c #DBDBE5",
"S.	c #8C8C95",
"T.	c #4F5372",
"U.	c #2022CD",
"V.	c #0000FD",
"W.	c #1D20A9",
"X.	c #7E819C",
"Y.	c #7F7F82",
"Z.	c #5C5C60",
"`.	c #464649",
" +	c #656569",
".+	c #A8A8B0",
"++	c #9A9AA1",
"@+	c #929299",
"#+	c #67676B",
"$+	c #BABAC3",
"%+	c #CBCBD5",
"&+	c #F3F3FE",
"*+	c #DBDBE6",
"=+	c #92929B",
"-+	c #5E6175",
";+	c #424687",
">+	c #1718D0",
",+	c #0101FA",
"'+	c #0303F2",
")+	c #1517B8",
"!+	c #40447F",
"~+	c #5E6075",
"{+	c #BCBCC5",
"]+	c #474A53",
"^+	c #2B2D33",
"/+	c #343438",
"(+	c #5D5D62",
"_+	c #8E8E94",
":+	c #ADADB5",
"<+	c #8A8A90",
"[+	c #BBBBC4",
"}+	c #E7E7F3",
"|+	c #B1B1BA",
"1+	c #797981",
"2+	c #6A6C7D",
"3+	c #565A82",
"4+	c #51558B",
"5+	c #43478A",
"6+	c #4F5489",
"7+	c #626692",
"8+	c #A8AABE",
"9+	c #DFDFEC",
"0+	c #CCCCD7",
"a+	c #6E6E74",
"b+	c #5E616D",
"c+	c #2D3039",
"d+	c #48494E",
"e+	c #646469",
"f+	c #C3C3CD",
"g+	c #808087",
"h+	c #797980",
"i+	c #85858C",
"j+	c #8F8F97",
"k+	c #919199",
"l+	c #737379",
"m+	c #6C6C72",
"n+	c #CECED9",
"o+	c #9294A2",
"p+	c #303440",
"q+	c #36373E",
"r+	c #525257",
"s+	c #B2B2BB",
"t+	c #EAEAF6",
"u+	c #98989F",
"v+	c #C5C5CF",
"w+	c #EEEEFA",
"x+	c #ABADBC",
"y+	c #363B49",
"z+	c #363941",
"A+	c #47474B",
"B+	c #A1A1A9",
"C+	c #A7A7AF",
"D+	c #CBCBD4",
"E+	c #78787E",
"F+	c #C1C1CA",
"G+	c #828287",
"H+	c #CFCFD9",
"I+	c #ECECF7",
"J+	c #C4C5D3",
"K+	c #404656",
"L+	c #363A45",
"M+	c #3D3E43",
"N+	c #DFDFEB",
"O+	c #818187",
"P+	c #93939A",
"Q+	c #C0C0C9",
"R+	c #89898F",
"S+	c #CDCDD7",
"T+	c #B0B0B9",
"U+	c #7D7D83",
"V+	c #B1B1B9",
"W+	c #CCCCD5",
"X+	c #EBEBF7",
"Y+	c #D8D8E6",
"Z+	c #4F5467",
"`+	c #373B49",
" @	c #3B3C42",
".@	c #D4D4DF",
"+@	c #E4E5F1",
"@@	c #63687B",
"#@	c #383C4D",
"$@	c #3A3C44",
"%@	c #68686E",
"&@	c #7A7F93",
"*@	c #393F53",
"=@	c #3B3E48",
"-@	c #57575C",
";@	c #B7B7C1",
">@	c #E1E1EC",
",@	c #EAEAF5",
"'@	c #E2E2ED",
")@	c #BEBEC7",
"!@	c #B0B0B8",
"~@	c #E3E3EE",
"{@	c #E5E5F0",
"]@	c #BDBDC6",
"^@	c #9297A9",
"/@	c #3D435A",
"(@	c #3B3F4C",
"_@	c #434347",
":@	c #A4A4AC",
"<@	c #88888E",
"[@	c #808086",
"}@	c #626266",
"|@	c #95959C",
"1@	c #A5A5AC",
"2@	c #AFAFB7",
"3@	c #B8B8C1",
"4@	c #88888F",
"5@	c #DFDFEA",
"6@	c #A9A9B1",
"7@	c #7C7F8E",
"8@	c #404860",
"9@	c #373C4C",
"0@	c #333338",
"a@	c #E1E1ED",
"b@	c #838388",
"c@	c #939399",
"d@	c #8B8B91",
"e@	c #86868C",
"f@	c #8E8E95",
"g@	c #B2B2BA",
"h@	c #7F7F85",
"i@	c #C2C2CB",
"j@	c #7E7E84",
"k@	c #8C8C92",
"l@	c #B6B6BE",
"m@	c #8E909D",
"n@	c #485069",
"o@	c #3F424E",
"p@	c #323235",
"q@	c #DADAE5",
"r@	c #EDEDFA",
"s@	c #D9D9E4",
"t@	c #D0D0DB",
"u@	c #87878D",
"v@	c #B9B9C2",
"w@	c #8F8F96",
"x@	c #7C7C81",
"y@	c #616165",
"z@	c #9B9BA3",
"A@	c #65656A",
"B@	c #9999A0",
"C@	c #737378",
"D@	c #727277",
"E@	c #D9D9E3",
"F@	c #84848A",
"G@	c #AAAAB2",
". + + + + + + + + + + + + + + + + + + + + + + + + + + + + + + + + + + + ",
"@ # # # # # # # # # # # # # # # # # # # # # # # # # # # # # # # # # # # ",
"@ # # # # # # # # # # # # # # # # # # # # # # # # # # # # # # # # # # # ",
"@ # # # $ $ $ $ % & * * = % $ $ $ $ $ $ $ $ $ $ $ $ $ $ $ $ $ $ $ $ $ $ ",
"@ # # # - ; > , ' ) ! ~ { ' ] ^ ; / / / / / / / / / / / / / / / / / / / ",
"@ # # # ( _ ) : < [ } | 1 2 3 4 5 6 ; / / / / / / / / / / / / / / / / / ",
"@ # # 7 8 9 _ 0 a b c d e e f g h i j k / / / / / / / / / / / / / / / / ",
"@ # l m n o p q r e e e e e e e s t u v w / / / / / / / / / / / / / / / ",
"@ x y z A B C e e e e e e e e e e e D E F w / / / / / / / / / / / / / / ",
"@ l G H I J e e e e e K L M e e e e e N O P Q / / / / / / / / / / / / / ",
"R S T U V W e e e e e X Y Z e e e e e `  ...+.@./ / / / / / / / / / / / ",
"R #.$.%.&.e e e e e *.=.-.;.e e e e e e >.,.'.)./ / / / / / / / / / / / ",
"R !.~.{.].e e e e e ^./.# (.e e e e e e _.:.<.6 / / / / / / / / / / / / ",
"R [.}.|.1.e e e e e e 2.# (.e e e e e e 3.4.5.A @./ / / / / / / / / / / ",
"6.7.}.8.9.e e e e e e M # (.e e e e e e 0.a.b.c.; / / / / / / / / / / / ",
"@ d.e.f.g.e e e e e e M # (.e e e e e e h.i.j.F ; / / / / / / / / / / / ",
"@ x !.k.l.e e e e e e M # (.e e e e e m.n.o.p.q.; / / / / / / / / / / / ",
"@ # l r.s.t.e e e e e u.# u.e e e e e v.w.+.x.y.@./ / / / / / / / / / / ",
"@ # # z.A.B.C.e e e K D.E.F.G.e e e H.I.J.K.L.M.N.O.P./ Q./ / / / / / / ",
"@ # # x R.S.T.U.e e e e e e e e V.W.X.Y.Z.`. +.+++@+#+$+%+/ / / / / / / ",
"@ # # # &+*+=+-+;+>+,+e e e '+)+!+~+{+]+^+/+(+_+5.:+<+] [+/ / / / / / / ",
"@ # # # - / }+|+1+2+3+4+5+6+7+8+9+0+{ a+b+c+d+e+f+O./ / / / / / / / / / ",
"@ # # # - / / ; P.5 g+h+i+j+k+i+l+m+j+n+k o+p+q+r+s+)./ / / / / / / / / ",
"@ # # # - / / / / ; t+*+[+u+v s+v+6 w+/ / / x+y+z+A+B+> / / / / / / / / ",
"@ # # # - / / / / / n C+D+F %+E+F+G+|+H+I+/ / J+K+L+M+: N+@./ / / / / / ",
"@ # # # - / / / / / O+P+Q+R+S+O+T+U+V+W+X+/ / / Y+Z+`+ @h+.@; / / / / / ",
"@ # # # - / / / / / / / / / / / / / / / / / / / / +@@@#@$@%@] O./ / / / ",
"@ # # # - / / / / / / / / / / / / / / / / / / / / / w+&@*@=@-@;@)./ / / ",
"@ # # # - / / / / / N.N.w+>@@.*+,@'@w )@!@>@~@{@.+o.]@*+^@/@(@_@:@P./ / ",
"@ # # # - / / / / / <@:+[@}@_  +F @+|@o.5 1@2@3@4@5@6@H+<.7@8@9@0@h+a@@.",
"@ # # # - / / / / / b@$+c@d@6@e@2@f@K.g@h@i@j@{+k@l@c@<.6@n m@n@o@p@g+q@",
"@ # # # - / / / / / / / / / / / / / / / / / / / / / / / / / / r@s@;@|+t@",
"@ # # # - / / / / / / / / / / / / / / / / / / / / / / / / / / / / / / / ",
"@ # # # - / / / / / }+u@w >@+.v@Q 5@; }+/ / / / / / / / / / / / / / / / ",
"@ # # # - / / / / / w@x@F y@A z@v@A@..S+/ / / / / / / / / / / / / / / / ",
"@ # # # - / / / / / B@C@w@D@E@F@G@G+3@{+/ / / / / / / / / / / / / / / / "};
