/* XPM */
static char * left_arrow_xpm[] = {
"36 36 138 2",
"  	c None",
". 	c #384361",
"+ 	c #646C83",
"@ 	c #8B91A2",
"# 	c #FFFFFF",
"$ 	c #8A90A2",
"% 	c #4C507A",
"& 	c #A2A4C0",
"* 	c #F9F9FA",
"= 	c #888BAD",
"- 	c #575C94",
"; 	c #9C9FBD",
"> 	c #F0F0F3",
", 	c #7377A4",
"' 	c #C7C8D7",
") 	c #E3E4EA",
"! 	c #62679E",
"~ 	c #D9D9E1",
"{ 	c #D1D2DD",
"] 	c #DFDFE7",
"^ 	c #D9DAE4",
"/ 	c #6F73A2",
"( 	c #BEC0D0",
"_ 	c #70749C",
": 	c #EDEDF3",
"< 	c #7377A8",
"[ 	c #E3E4E9",
"} 	c #F7F7F9",
"| 	c #F5F6F8",
"1 	c #9195B8",
"2 	c #A4A6C1",
"3 	c #D4D5E0",
"4 	c #9D9FBD",
"5 	c #9194B2",
"6 	c #C4C6D7",
"7 	c #A6A9C4",
"8 	c #C0C2D8",
"9 	c #6A6FA2",
"0 	c #D6D8E4",
"a 	c #FEFEFE",
"b 	c #9699B6",
"c 	c #D5D6E0",
"d 	c #9597B4",
"e 	c #8A91A2",
"f 	c #9395AC",
"g 	c #FDFDFE",
"h 	c #9598B8",
"i 	c #AAADCD",
"j 	c #61669D",
"k 	c #8488B6",
"l 	c #5D619B",
"m 	c #7378AA",
"n 	c #E7E8ED",
"o 	c #CCCCD2",
"p 	c #EEEFF5",
"q 	c #DCDDE5",
"r 	c #FAFAFC",
"s 	c #F5F5F9",
"t 	c #F2F2F7",
"u 	c #E1E1E8",
"v 	c #D0D1DD",
"w 	c #F0F1F4",
"x 	c #9699B8",
"y 	c #F2F2F5",
"z 	c #FCFCFD",
"A 	c #F4F4F8",
"B 	c #F6F7FA",
"C 	c #F8F8FA",
"D 	c #E2E3E9",
"E 	c #B3B5C9",
"F 	c #FAFAFB",
"G 	c #FBFBFD",
"H 	c #FBFBFC",
"I 	c #F5F5F8",
"J 	c #727596",
"K 	c #7B7FAC",
"L 	c #CFD0DE",
"M 	c #D5D6E4",
"N 	c #A9ACC4",
"O 	c #8F92B4",
"P 	c #E8E9EE",
"Q 	c #8689AF",
"R 	c #AEB0C3",
"S 	c #EDEDF1",
"T 	c #9FA2BF",
"U 	c #B5B7D0",
"V 	c #C9CAD8",
"W 	c #BBBCCD",
"X 	c #DADBE4",
"Y 	c #9EA1BD",
"Z 	c #E0E1EB",
"` 	c #DCDCE5",
" .	c #A4A6C2",
"..	c #FBFCFC",
"+.	c #FDFDFD",
"@.	c #EDEDED",
"#.	c #AAAAAA",
"$.	c #575757",
"%.	c #C9C9C9",
"&.	c #FCFCFC",
"*.	c #FBFBFB",
"=.	c #FAFAFA",
"-.	c #DADADA",
";.	c #959595",
">.	c #777777",
",.	c #C5C5C5",
"'.	c #F6F6F6",
").	c #ECECEC",
"!.	c #8D8D8D",
"~.	c #737373",
"{.	c #747474",
"].	c #CDCDCD",
"^.	c #F7F7F7",
"/.	c #999999",
"(.	c #757575",
"_.	c #B7B7B7",
":.	c #3E3E3E",
"<.	c #767676",
"[.	c #F5F5F5",
"}.	c #E9E9E9",
"|.	c #818181",
"1.	c #686868",
"2.	c #6A6A6A",
"3.	c #CACACA",
"4.	c #F4F4F4",
"5.	c #8C8C8C",
"6.	c #B1B1B1",
"7.	c #A5A5A5",
"8.	c #4F4F4F",
"9.	c #727272",
"0.	c #B6B6B6",
"a.	c #A7A7A7",
"b.	c #646464",
"c.	c #696969",
"d.	c #B5B5B5",
"e.	c #F1F1F1",
"f.	c #BEBEBE",
"g.	c #D1D1D1",
". + + + + + + + + + + + + + + + + + + + + + + + + + + + + + + + + + + + ",
"@ # # # # # # # # # # # # # # # # # # # # # # # # # # # # # # # # # # # ",
"@ # # # # # # # # # # # # # # # # # # # # # # # # # # # # # # # # # # # ",
"@ # # # # # # # # # # # # # # # # # # # # # # # # # # # # # # # # # # # ",
"@ # # # # # # # # # # # # # # # # # # # # # # # # # # # # # # # # # # # ",
"@ # # # # # # # # # # # # # # # # # # # # # # # # # # # # # # # # # # # ",
"@ # # # # # # # # # # # # # # # # # # # # # # # # # # # # # # # # # # # ",
"@ # # # # # # # # # # # # # # # # # # # # # # # # # # # # # # # # # # # ",
"@ # # # # # # # # # # # # # # # # # # # # # # # # # # # # # # # # # # # ",
"@ # # # # # # # # # # # # # # # # # # # # # # # # # # # # # # # # # # # ",
"$ % & * # # # # # # # # = - ; # # # # # # # # # # > , ' # # # # # # # # ",
"$ ) ! ~ # # # # # # # { ] ^ / # # # # # # # # # # ( _ ' # # # # # # # # ",
"$ : < [ # # # # # # # } | 1 2 # # # # # # # # # 3 4 5 ' # # # # # # # # ",
"$ 6 7 # # # # # # # # # * 8 9 0 # # # # # # # a b c d ' # # # # # # # # ",
"e f * # # # # # # # # # # g h i # # # # # # # g j k l m n # # # # # # # ",
"@ o p q r s a t g # # u v w x y z A g B C # # # D D = E F A G H I # # z ",
"@ J K L M N H O A # # P Q R q # S T > U V # # # # # W X # Y Z `  ...# g ",
"@ # # # # # # # # # # # # # # # # # # # # # # # # # # # # # # # # # # # ",
"@ # # # # # # # # # # # # # # # # # # # # # # # # # # # # # # # # # # # ",
"@ # # # # # # # # # # # # # # # # # # # # # # # # # # # # # # # # # # # ",
"@ # # # # # # # # # # # # # # # # # # # # # # # # # # # # # # # # # # # ",
"@ # # # # # # # # # # # # # # # # # # # # # # # # # # # # # # # # # # # ",
"@ # # # # # # # # # # # # # # # # # # # # # # # # # # # # # # # # # # # ",
"@ # # # # # # # +.@.#.$.%.# &.*.*.*.*.a # +.*.*.*.*.+.# # # # # # # # # ",
"@ # # # # # =.-.;.$.>.,.'.).!.~.~.~.{.].^./.~.~.~.(._.# # # # # # # # # ",
"@ # # # # # /.:.<.%.[.a # }.|.1.1.1.2.3.4.5.1.1.1.2.6.# # # # # # # # # ",
"@ # # # # # 7.8.9.0.@.a # # # # # # # # # # # # # # # # # # # # # # # # ",
"@ # # # # # a }.a.b.c.d.[.# # # # # # # # # # # # # # # # # # # # # # # ",
"@ # # # # # # # # e.f.9.g.# # # # # # # # # # # # # # # # # # # # # # # ",
"@ # # # # # # # # # # # # # # # # # # # # # # # # # # # # # # # # # # # ",
"@ # # # # # # # # # # # # # # # # # # # # # # # # # # # # # # # # # # # ",
"@ # # # # # # # # # # # # # # # # # # # # # # # # # # # # # # # # # # # ",
"@ # # # # # # # # # # # # # # # # # # # # # # # # # # # # # # # # # # # ",
"@ # # # # # # # # # # # # # # # # # # # # # # # # # # # # # # # # # # # ",
"@ # # # # # # # # # # # # # # # # # # # # # # # # # # # # # # # # # # # ",
"@ # # # # # # # # # # # # # # # # # # # # # # # # # # # # # # # # # # # "};
