/* XPM */
static char * left90_xpm[] = {
"36 36 131 2",
"  	c None",
". 	c #384361",
"+ 	c #646C83",
"@ 	c #8B91A2",
"# 	c #FFFFFF",
"$ 	c #FDFDFD",
"% 	c #F7F7F7",
"& 	c #F3F3F3",
"* 	c #F0F0F0",
"= 	c #EFEFEF",
"- 	c #F8F8F8",
"; 	c #F9F9F9",
"> 	c #C0C0C0",
", 	c #7C7C7C",
"' 	c #484848",
") 	c #222222",
"! 	c #0C0C0C",
"~ 	c #010101",
"{ 	c #0D0D0D",
"] 	c #252525",
"^ 	c #4C4C4C",
"/ 	c #818181",
"( 	c #C6C6C6",
"_ 	c #FCFCFC",
": 	c #F1F1F1",
"< 	c #9B9B9B",
"[ 	c #2F2F2F",
"} 	c #070707",
"| 	c #000000",
"1 	c #141414",
"2 	c #BFBFBF",
"3 	c #F5F5F5",
"4 	c #B3B2B2",
"5 	c #FBFBFB",
"6 	c #C3C3C3",
"7 	c #434343",
"8 	c #060606",
"9 	c #373737",
"0 	c #8C8A8A",
"a 	c #FAFAFA",
"b 	c #9F9F9F",
"c 	c #1A1A1A",
"d 	c #8D8D8D",
"e 	c #E7E7E7",
"f 	c #DADADA",
"g 	c #989898",
"h 	c #0B0B0B",
"i 	c #121212",
"j 	c #C7C7C7",
"k 	c #747474",
"l 	c #E5E5E5",
"m 	c #B0B0B0",
"n 	c #020202",
"o 	c #030303",
"p 	c #636363",
"q 	c #6D6D6D",
"r 	c #6F6F6F",
"s 	c #6C6C6C",
"t 	c #5A5A5A",
"u 	c #3D3D3D",
"v 	c #EEEEEE",
"w 	c #8A90A2",
"x 	c #FEFEFE",
"y 	c #A1A1A1",
"z 	c #585858",
"A 	c #D7D7D7",
"B 	c #202020",
"C 	c #3B3B3B",
"D 	c #8A8A8A",
"E 	c #CECECE",
"F 	c #EAEAEA",
"G 	c #F4F4F4",
"H 	c #EDEDED",
"I 	c #424242",
"J 	c #656565",
"K 	c #646464",
"L 	c #404040",
"M 	c #AFAFAF",
"N 	c #EBEBEB",
"O 	c #090909",
"P 	c #131313",
"Q 	c #909090",
"R 	c #D1D1D1",
"S 	c #616161",
"T 	c #1E1E1E",
"U 	c #CBCBCB",
"V 	c #8A91A2",
"W 	c #D2D2D2",
"X 	c #5F5F5F",
"Y 	c #5D5D5D",
"Z 	c #535353",
"` 	c #D4D4D4",
" .	c #0A0A0A",
"..	c #1C1C1C",
"+.	c #797979",
"@.	c #D0D0D0",
"#.	c #040404",
"$.	c #CDCDCD",
"%.	c #C7CDDD",
"&.	c #57689A",
"*.	c #7482AB",
"=.	c #ABB3CC",
"-.	c #E3E6EE",
";.	c #050505",
">.	c #8F9ABC",
",.	c #203679",
"'.	c #808080",
").	c #E8E8E8",
"!.	c #041D68",
"~.	c #3C4F89",
"{.	c #E9E9E9",
"].	c #8A8888",
"^.	c #ECECEC",
"/.	c #B9B9B9",
"(.	c #817F7F",
"_.	c #C1C1C1",
":.	c #E3E3E3",
"<.	c #E1E1E1",
"[.	c #BBBBBB",
"}.	c #E4E4E4",
"|.	c #BCBCBC",
"1.	c #E0E0E0",
"2.	c #CACACA",
"3.	c #E2E1E1",
"4.	c #D8D7D7",
"5.	c #B4B3B3",
"6.	c #D6D6D6",
"7.	c #878585",
"8.	c #D9D8D8",
"9.	c #9A9898",
"0.	c #A09F9F",
". + + + + + + + + + + + + + + + + + + + + + + + + + + + + + + + + + + + ",
"@ # # # # # # # # # # # # # # # # # # # # # # # # # # # # # # # # # # # ",
"@ # # # # # # # # # # # # # # # # # # # # # # # # # # # # # # # # # # # ",
"@ # # # # # # # # # # # # # # # $ % & * = * & - $ # # # # # # # # # # # ",
"@ # # # # # # # # # # # # # ; > , ' ) ! ~ { ] ^ / ( _ # # # # # # # # # ",
"@ # # # # # # # # # # # : < [ } ~ | | | | | | | ~ 1 2 # # 3 4 # # # # # ",
"@ # # # # # # # # # 5 6 7 8 | | | | | | | | | | | 9 % # # * 0 # # # # # ",
"@ # # # # # _ # # a b c | | | | | | | | | | | | ~ d # # # * 0 # # # # # ",
"@ # # # # e f # # g h | | | | | | | | | | | | | i j # # # * 0 # # # # # ",
"@ # # # - k l $ m n | | | | | o ] ' p q r s t u ' v # # # * 0 # # # # # ",
"w # # x y z - A B | | | 8 C D E F G 5 x # x ; * H x # # # * 0 # # # # # ",
"w # # % I J % K | | } L M H # # # # # # # # # # # # # # # * 0 # # # # # ",
"w # # N O p j i | P Q * # # # # # # # # # # # # # # # # # * 0 # # # # # ",
"w # # R | ^ S | T U x # # # # # # # # # # # # # # # # # # * 0 # # # # # ",
"V # # W | h } 8 X Y Z / ` # # # # # # # # # # # # # # # # * 0 # # # # # ",
"@ # # F  .| | ~ ..+.@.: x # # # # # # # # # # # # # # # # * 0 # # # # # ",
"@ # # % I | #.' $.# # # # %.&.*.&.# %.*.*.=.-.=.=.%.# # # * 0 # # # # # ",
"@ # # # y ;.t v # # # # # &.=.# >.=.,.-.# &.=.# # &.# # # * 0 # # # # # ",
"@ # # # _ '.).# # # # # # &.=.# =.=.!.# # &.# =.=.# # # # * 0 # # # # # ",
"@ # # # # ; x # # # # # # =.,.%.,.=.!.# # &.# # # # # # # * 0 # # # # # ",
"@ # # # # # # # # # # # # # -.=.~.# !.-.# ~.# # # # # x a {.].# # # # # ",
"@ # # # # # # # # # # # # # # *.>.# &.=.# &.# # # _ ^.$.> /.(.# # # # # ",
"@ # # # # # # # # # # # # %.>.%.# # # >.*.-.# # v _.> :.; * 0 # # # # # ",
"@ # # # # # # # # # # # # # # # # # # # # # # <.[.}.$ # # * 0 # # # # # ",
"@ # # # # # # # # # # # # # # # # # # # # # F |.H x # # # * 0 # # # # # ",
"@ # # # # # # # # # # # # # # # # # # # # a |.F # # # # # * 0 # # # # # ",
"@ # # # # # # # # # # # # # # # # # # # # 1.2.$ # # # # # * 0 # # # # # ",
"@ # # # # # # # # # # # # # # # # # # # _ 6 * # # # # # # * 0 # # # # # ",
"@ # # # # # # # # # # # # # # # # # # # 3 > x # # # # # # * 0 # # # # # ",
"@ # # # # G 3.3.3.3.3.3.3.3.3.3.3.3.3.3.4.5.3.3.3.3.3.3.3.6.7.# # # # # ",
"@ # # # # 8.9.9.9.9.9.9.9.9.9.9.9.9.9.9.9.9.9.9.9.9.9.9.9.9.0.# # # # # ",
"@ # # # # # # # # # # # # # # # # # # # # # # # # # # # # # # # # # # # ",
"@ # # # # # # # # # # # # # # # # # # # # # # # # # # # # # # # # # # # ",
"@ # # # # # # # # # # # # # # # # # # # # # # # # # # # # # # # # # # # ",
"@ # # # # # # # # # # # # # # # # # # # # # # # # # # # # # # # # # # # ",
"@ # # # # # # # # # # # # # # # # # # # # # # # # # # # # # # # # # # # "};
