/* XPM */
static char * printer_xpm[] = {
"36 36 144 2",
"  	c None",
". 	c #384361",
"+ 	c #646C83",
"@ 	c #8B91A2",
"# 	c #FFFFFF",
"$ 	c #8A90A2",
"% 	c #F9F9F9",
"& 	c #D9D9D9",
"* 	c #FEFEFE",
"= 	c #E4E4E4",
"- 	c #B8B8B8",
"; 	c #AFAFAF",
"> 	c #EDEDED",
", 	c #C0C0C0",
"' 	c #8A91A2",
") 	c #CFCFCF",
"! 	c #B0B0B0",
"~ 	c #BABABA",
"{ 	c #9E9E9E",
"] 	c #999999",
"^ 	c #929292",
"/ 	c #414141",
"( 	c #000000",
"_ 	c #ADADAD",
": 	c #8B8B8B",
"< 	c #777777",
"[ 	c #888B8F",
"} 	c #BFC2C7",
"| 	c #C4C7CC",
"1 	c #DBDEE2",
"2 	c #DFE2E6",
"3 	c #DADDE1",
"4 	c #E7EAED",
"5 	c #ECEFF2",
"6 	c #EDF0F3",
"7 	c #ECEFF3",
"8 	c #D7DADE",
"9 	c #E0E2E4",
"0 	c #E4E7E9",
"a 	c #E6E9EB",
"b 	c #E2E4E7",
"c 	c #DFE2E4",
"d 	c #DEE0E2",
"e 	c #D4D6D8",
"f 	c #D0D2D4",
"g 	c #DDE0E4",
"h 	c #F0F3F6",
"i 	c #F1F4F7",
"j 	c #F1F3F7",
"k 	c #F1F3F6",
"l 	c #EFF2F5",
"m 	c #E8EBED",
"n 	c #F0F2F5",
"o 	c #EBEEF1",
"p 	c #EAEDF0",
"q 	c #E9ECEF",
"r 	c #E8EBEE",
"s 	c #E6E8EC",
"t 	c #E4E7EB",
"u 	c #E3E6E9",
"v 	c #E1E4E8",
"w 	c #E0E2E6",
"x 	c #DEE1E5",
"y 	c #DCDFE3",
"z 	c #D9DCE0",
"A 	c #D8DBDF",
"B 	c #D6D9DD",
"C 	c #CDD1D6",
"D 	c #B5B9BF",
"E 	c #BCBDBD",
"F 	c #E0E3E6",
"G 	c #DDDFE3",
"H 	c #D4D7DC",
"I 	c #D3D6DA",
"J 	c #D1D4D9",
"K 	c #CFD3D7",
"L 	c #CED1D6",
"M 	c #CCCFD4",
"N 	c #CACED3",
"O 	c #C9CCD1",
"P 	c #C7CBD0",
"Q 	c #C5C9CE",
"R 	c #C4C7CD",
"S 	c #C2C6CB",
"T 	c #C0C4CA",
"U 	c #BFC3C8",
"V 	c #BDC1C7",
"W 	c #BBBFC5",
"X 	c #BABEC4",
"Y 	c #B8BCC2",
"Z 	c #B6BBC1",
"` 	c #B3B8BE",
" .	c #B0B5BB",
"..	c #BCBFC4",
"+.	c #B1B1B1",
"@.	c #B6B9BC",
"#.	c #BEC2C7",
"$.	c #B1B6BC",
"%.	c #B0B4BB",
"&.	c #AEB3B9",
"*.	c #ACB1B7",
"=.	c #ABB0B6",
"-.	c #A9AEB4",
";.	c #A8ACB3",
">.	c #A6ABB1",
",.	c #A4A9B0",
"'.	c #A3A8AE",
").	c #A1A6AD",
"!.	c #9FA4AB",
"~.	c #9EA3AA",
"{.	c #9CA1A8",
"].	c #9AA0A7",
"^.	c #999EA6",
"/.	c #979DA4",
"(.	c #969BA3",
"_.	c #959AA2",
":.	c #9399A0",
"<.	c #92989F",
"[.	c #91979E",
"}.	c #B4B8BE",
"|.	c #9A9A9A",
"1.	c #787878",
"2.	c #979A9E",
"3.	c #C9D1DB",
"4.	c #CBD3DE",
"5.	c #CBD3DD",
"6.	c #CAD2DD",
"7.	c #C9D2DD",
"8.	c #C9D1DC",
"9.	c #C8D1DC",
"0.	c #C8D0DB",
"a.	c #C7D0DB",
"b.	c #C7CFDA",
"c.	c #C6CFDA",
"d.	c #C6CEDA",
"e.	c #C6CED9",
"f.	c #C5CED9",
"g.	c #C4CCD7",
"h.	c #939393",
"i.	c #A6AAB0",
"j.	c #D4DDE8",
"k.	c #D5DEEA",
"l.	c #D3DCE8",
"m.	c #D8D8D8",
". + + + + + + + + + + + + + + + + + + + + + + + + + + + + + + + + + + + ",
"@ # # # # # # # # # # # # # # # # # # # # # # # # # # # # # # # # # # # ",
"@ # # # # # # # # # # # # # # # # # # # # # # # # # # # # # # # # # # # ",
"@ # # # # # # # # # # # # # # # # # # # # # # # # # # # # # # # # # # # ",
"@ # # # # # # # # # # # # # # # # # # # # # # # # # # # # # # # # # # # ",
"@ # # # # # # # # # # # # # # # # # # # # # # # # # # # # # # # # # # # ",
"@ # # # # # # # # # # # # # # # # # # # # # # # # # # # # # # # # # # # ",
"@ # # # # # # # # # # # # # # # # # # # # # # # # # # # # # # # # # # # ",
"@ # # # # # # # # # # # # # # # # # # # # # # # # # # # # # # # # # # # ",
"@ # # # # # # # # # # # # # # # # # # # # # # # # # # # # # # # # # # # ",
"$ # # # # # # # # # # # # # # # # # # # # # # # # # # # # # # # # # # # ",
"$ # # # # # % & & & & & & & & & & & & & & & & & & & & & & & & & & & & & ",
"$ # # # * = - ; ; ; ; ; ; ; ; ; ; ; ; ; ; ; ; ; ; ; ; ; ; ; ; ; ; ; ; ; ",
"$ # # > , ; ; ; ; ; ; ; ; ; ; ; ; ; ; ; ; ; ; ; ; ; ; ; ; ; ; ; ; ; ; ; ",
"' % ) ! ; ; ; ; ; ; ; ; ; ; ; ; ; ; ; ; ; ; ; ; ; ; ; ; ; ; ; ; ; ; ; ; ",
"@ ~ ; ; ; ; ; ; ; ; ; ; ; ; ; ; ; ; ; ; ; ; ; ; ; ; ; ; ; ; ; ; ; ; ; ; ",
"@ ; ; ; ; ; ; ; ; ; { ] ] ] ] ] ] ] ] ] ] ] ] ] ] ] ] ] ] ] ] ] ] ] ] ] ",
"@ ; ; ; ; ; ; ; ; ^ / ( ( ( ( ( ( ( ( ( ( ( ( ( ( ( ( ( ( ( ( ( ( ( ( ( ",
"@ ; ; ; ; ; ; _ : < [ } } } } } | 1 2 3 1 1 1 1 1 4 5 5 6 6 7 7 6 8 } } ",
"@ 9 0 a b c d e f g h i i i i i i i i i i i i i i i i i i j k h h l } } ",
"@ m i i i i i i k h h n l l l 6 5 o p q r 4 s t u v w x y 1 z A B C D } ",
"@ E w u v F x G 1 z A B H I J K L M N O P Q R S T U V W X Y Z D `  .Q ..",
"@ ; +.@.#.V W X Y Z D ` $.%.&.*.=.-.;.>.,.'.).!.~.{.].^./.(._.:.<.[.!.}.",
"@ ; |.1.2.3.4.4.5.6.6.7.8.8.9.0.0.a.b.b.c.d.e.f.f.f.f.f.f.f.f.f.f.f.f.g.",
"@ h.< i.j.k.k.k.k.k.k.k.k.k.k.k.k.k.k.k.k.k.k.k.k.k.k.k.k.k.k.k.k.k.k.l.",
"@ ; ; ; ; ; ; ; ; ; ; ; ; ; ; ; ; ; ; ; ; ; ; ; ; ; ; ; ; ; ; ; ; ; ; ; ",
"@ ; ; ; ; ; ; ; ; ; ; ; ; ; ; ; ; ; ; ; ; ; ; ; ; ; ; ; ; ; ; ; ; ; ; ; ",
"@ ; ; ; ; ; ; ; ; ; ; ; ; ; ; ; ; ; ; ; ; ; ; ; ; ; ; ; ; ; ; ; ; ; ; ; ",
"@ m.m.m.m.m.m.m.m.m.m.m.m.m.m.m.m.m.m.m.m.m.m.m.m.m.m.m.m.m.m.m.m.m.m.m.",
"@ m.m.m.m.m.m.m.m.m.m.m.m.m.m.m.m.m.m.m.m.m.m.m.m.m.m.m.m.m.m.m.m.m.m.m.",
"@ m.m.m.m.m.m.m.m.m.m.m.m.m.m.m.m.m.m.m.m.m.m.m.m.m.m.m.m.m.m.m.m.m.m.m.",
"@ m.m.m.m.m.m.m.m.m.m.m.m.m.m.m.m.m.m.m.m.m.m.m.m.m.m.m.m.m.m.m.m.m.m.m.",
"@ m.m.m.m.m.m.m.m.m.m.m.m.m.m.m.m.m.m.m.m.m.m.m.m.m.m.m.m.m.m.m.m.m.m.m.",
"@ m.m.m.m.m.m.m.m.m.m.m.m.m.m.m.m.m.m.m.m.m.m.m.m.m.m.m.m.m.m.m.m.m.m.m.",
"@ m.m.m.m.m.m.m.m.m.m.m.m.m.m.m.m.m.m.m.m.m.m.m.m.m.m.m.m.m.m.m.m.m.m.m.",
"@ m.m.m.m.m.m.m.m.m.m.m.m.m.m.m.m.m.m.m.m.m.m.m.m.m.m.m.m.m.m.m.m.m.m.m."};
