/* XPM */
static char * reverse_xpm[] = {
"36 36 279 2",
"  	c None",
". 	c #384361",
"+ 	c #646C83",
"@ 	c #8B91A2",
"# 	c #FFFFFF",
"$ 	c #EBF4F3",
"% 	c #000000",
"& 	c #EBEFF1",
"* 	c #A0A2A7",
"= 	c #F4F4F4",
"- 	c #F9F9F9",
"; 	c #FEFEFE",
"> 	c #E8EAEB",
", 	c #9C9FA2",
"' 	c #161719",
") 	c #000001",
"! 	c #9FA0A4",
"~ 	c #D6D6D6",
"{ 	c #F7F7F7",
"] 	c #EBF1F0",
"^ 	c #DBDFE1",
"/ 	c #414246",
"( 	c #040406",
"_ 	c #2F3035",
": 	c #969696",
"< 	c #E2E2E2",
"[ 	c #FDFDFD",
"} 	c #CCCFCE",
"| 	c #727478",
"1 	c #6D6E71",
"2 	c #C0C0C0",
"3 	c #8A90A2",
"4 	c #EAF2F1",
"5 	c #D3D9DC",
"6 	c #B2B8BB",
"7 	c #D4DBDB",
"8 	c #E4EDEC",
"9 	c #E9F2F1",
"0 	c #DBDFDF",
"a 	c #313336",
"b 	c #515356",
"c 	c #9B9B9B",
"d 	c #EBEBEB",
"e 	c #EBEEF0",
"f 	c #AAAEB1",
"g 	c #5F6265",
"h 	c #1A1C1F",
"i 	c #7E8184",
"j 	c #BBC2C1",
"k 	c #DEE6E5",
"l 	c #EAF3F2",
"m 	c #A9ACAE",
"n 	c #343538",
"o 	c #787878",
"p 	c #DADADA",
"q 	c #D5D6DA",
"r 	c #9DA1A6",
"s 	c #AEB5B8",
"t 	c #A5ACAF",
"u 	c #121316",
"v 	c #212325",
"w 	c #0C0D0F",
"x 	c #5B5E61",
"y 	c #7F8483",
"z 	c #CCD4D3",
"A 	c #E8F1F0",
"B 	c #E4E8E8",
"C 	c #2D2F32",
"D 	c #1F2126",
"E 	c #606060",
"F 	c #CACACA",
"G 	c #FCFCFC",
"H 	c #E6E9E9",
"I 	c #C3CACA",
"J 	c #505256",
"K 	c #191B1C",
"L 	c #525556",
"M 	c #46484A",
"N 	c #595C5F",
"O 	c #6D7171",
"P 	c #C5CCCB",
"Q 	c #838589",
"R 	c #16181D",
"S 	c #515151",
"T 	c #BDBDBD",
"U 	c #8A91A2",
"V 	c #5A5E62",
"W 	c #666A6D",
"X 	c #595C5C",
"Y 	c #535559",
"Z 	c #6E7275",
"` 	c #7E8382",
" .	c #CBD2D1",
"..	c #BBBCBF",
"+.	c #18191E",
"@.	c #4A4A4A",
"#.	c #B5B5B5",
"$.	c #8B8C91",
"%.	c #17191A",
"&.	c #525657",
"*.	c #6C7070",
"=.	c #65696F",
"-.	c #959B9B",
";.	c #9CA09F",
">.	c #DDE1E0",
",.	c #DCDDE0",
"'.	c #232529",
").	c #4B4B4B",
"!.	c #B6B6B6",
"~.	c #E3E4E6",
"{.	c #050506",
"].	c #4B4D51",
"^.	c #454747",
"/.	c #909695",
"(.	c #BCC2C5",
"_.	c #BBBEBE",
":.	c #C3C6C5",
"<.	c #EBEFEE",
"[.	c #E8E9EC",
"}.	c #010202",
"|.	c #333437",
"1.	c #535353",
"2.	c #BEBEBE",
"3.	c #5E6064",
"4.	c #414244",
"5.	c #5C5C5C",
"6.	c #BDBFBE",
"7.	c #E7EBEA",
"8.	c #DEE2E1",
"9.	c #E6EAE9",
"0.	c #E7E8EB",
"a.	c #3A3B3F",
"b.	c #636363",
"c.	c #CCCCCC",
"d.	c #EEEFF0",
"e.	c #09090B",
"f.	c #424446",
"g.	c #737575",
"h.	c #D3D6D5",
"i.	c #D8D9DC",
"j.	c #08080B",
"k.	c #2D2D2F",
"l.	c #7E7E7E",
"m.	c #DEDEDE",
"n.	c #B0B1B5",
"o.	c #404246",
"p.	c #878988",
"q.	c #ACAFB2",
"r.	c #303135",
"s.	c #404040",
"t.	c #A2A2A2",
"u.	c #EDEDED",
"v.	c #6A6C6F",
"w.	c #484A4D",
"x.	c #909392",
"y.	c #E4E8E7",
"z.	c #CED2D6",
"A.	c #E3ECEC",
"B.	c #E7F0EF",
"C.	c #686C70",
"D.	c #0B0B0D",
"E.	c #2E2F31",
"F.	c #666666",
"G.	c #C8C8C8",
"H.	c #4F5156",
"I.	c #535558",
"J.	c #8F9090",
"K.	c #CACDCC",
"L.	c #E4ECEC",
"M.	c #62676C",
"N.	c #D3DBDA",
"O.	c #CED5D6",
"P.	c #0C0C0E",
"Q.	c #010101",
"R.	c #3B3C40",
"S.	c #444444",
"T.	c #E7E7E7",
"U.	c #404247",
"V.	c #565859",
"W.	c #6A6B6B",
"X.	c #B9BCBB",
"Y.	c #EBF2F1",
"Z.	c #BABFC1",
"`.	c #5D6165",
" +	c #AEB4B4",
".+	c #7E8286",
"++	c #515457",
"@+	c #424243",
"#+	c #797979",
"$+	c #D0D0D0",
"%+	c #3E4045",
"&+	c #4D4F52",
"*+	c #5E5F5F",
"=+	c #CFD1D1",
"-+	c #CED1D0",
";+	c #A2A7AB",
">+	c #434649",
",+	c #909698",
"'+	c #626669",
")+	c #575A59",
"!+	c #6E6E6E",
"~+	c #BCBCBC",
"{+	c #F0F0F0",
"]+	c #404146",
"^+	c #0F0F11",
"/+	c #676A6A",
"(+	c #9C9E9D",
"_+	c #CBCECD",
":+	c #969B9E",
"<+	c #030405",
"[+	c #0D0D0F",
"}+	c #797D80",
"|+	c #6C6F73",
"1+	c #676A72",
"2+	c #B6B7BC",
"3+	c #F1F1F1",
"4+	c #FBFBFB",
"5+	c #6A6B6E",
"6+	c #66676A",
"7+	c #7D7E7E",
"8+	c #C5C6C6",
"9+	c #E3E6E5",
"0+	c #A5AAAC",
"a+	c #020203",
"b+	c #1A1B1E",
"c+	c #3E4043",
"d+	c #4B4D50",
"e+	c #ABABAB",
"f+	c #E1E1E1",
"g+	c #F6F6F6",
"h+	c #ADAFB2",
"i+	c #111114",
"j+	c #808284",
"k+	c #C2C5C4",
"l+	c #C8CBCA",
"m+	c #DDE0DF",
"n+	c #DCE5E5",
"o+	c #9FA6A8",
"p+	c #606464",
"q+	c #4D5050",
"r+	c #868B8A",
"s+	c #B9B9B9",
"t+	c #FAFAFA",
"u+	c #E8E8EA",
"v+	c #808081",
"w+	c #C1C4C4",
"x+	c #D4DCDB",
"y+	c #BCC3C2",
"z+	c #868C8B",
"A+	c #BAC1C0",
"B+	c #CDD5D4",
"C+	c #F8F8F8",
"D+	c #5D5F63",
"E+	c #252729",
"F+	c #444548",
"G+	c #6B6E70",
"H+	c #C0C3C2",
"I+	c #EBF3F2",
"J+	c #E5EEED",
"K+	c #D3D3D6",
"L+	c #070709",
"M+	c #2D2E31",
"N+	c #36383A",
"O+	c #2E2F2F",
"P+	c #4C4E4D",
"Q+	c #7E807F",
"R+	c #C1C4C3",
"S+	c #A5A6AA",
"T+	c #737373",
"U+	c #5B5C5C",
"V+	c #818382",
"W+	c #ADAFAF",
"X+	c #E7EAE9",
"Y+	c #C7C7C7",
"Z+	c #D7DBDA",
"`+	c #EBF0EF",
" @	c #FBFDFC",
".@	c #F9FCFB",
"+@	c #FAFCFC",
". + + + + + + + + + + + + + + + + + + + + + + + + + + + + + + + + + + + ",
"@ # # # # # # # # # # # # # # # # # # # # # # # # # # # # # # # # # # # ",
"@ # # # $ $ $ $ $ $ $ $ $ $ $ $ $ $ $ $ $ $ $ $ $ $ $ $ $ $ $ # # # # # ",
"@ # # # $ $ $ $ $ $ $ $ $ $ $ $ $ $ $ $ $ $ $ $ $ $ $ $ $ $ $ # # # # # ",
"@ # # # $ $ % % % $ $ % $ $ % $ % $ $ $ $ $ $ $ $ $ $ $ $ $ $ # # # # # ",
"@ # # # $ $ % $ $ $ % $ % $ % $ % $ $ $ $ $ $ $ $ $ $ $ $ $ $ # # # # # ",
"@ # # # $ $ % % $ $ % % % $ $ % $ $ $ $ $ $ $ $ $ $ $ $ $ $ & * = - ; # ",
"@ # # # $ $ % $ $ $ % $ % $ % $ % $ $ $ $ $ $ $ $ $ $ $ > , ' ) ! ~ { # ",
"@ # # # $ $ % $ $ $ % $ % $ % $ % $ $ $ $ $ $ $ $ ] ^ / ( % % % _ : < [ ",
"@ # # # $ $ $ $ $ $ $ $ $ $ $ $ $ $ $ $ ] $ $ $ $ $ } | % % % % ) 1 2 { ",
"3 # # # $ $ 4 5 6 7 8 9 $ $ $ $ $ $ $ $ $ $ $ $ $ $ $ 0 a % % % % b c d ",
"3 # # e f g h % % i j k l $ $ $ $ $ $ $ $ $ $ $ $ $ $ $ m % % % % n o p ",
"3 # q r s t u v w x y z A $ $ $ $ $ $ $ $ $ $ $ $ $ $ $ B C % % % D E F ",
"3 # G H I J K L M N O P A $ $ $ $ $ $ $ $ $ $ $ $ $ $ $ $ Q % % % R S T ",
"U # ; # V % W X Y Z `  .$ $ $ $ $ $ $ $ $ $ $ $ $ $ $ $ $ ..% % % +.@.#.",
"@ # # $.% %.&.*.=.-.;.>.$ $ $ $ $ $ $ $ $ $ $ $ $ $ $ $ $ ,.) % % '.).!.",
"@ # ~.{.% ].^./.(._.:.<.$ $ $ $ $ $ $ $ $ $ $ $ $ $ $ $ $ [.}.% % |.1.2.",
"@ # 3.% % 4.5.6.7.8.9.$ $ $ $ $ $ $ $ $ $ $ $ $ $ $ $ $ $ 0.}.% % a.b.c.",
"@ d.e.% % f.g.h.$ $ $ $ $ $ $ $ $ $ $ $ $ $ $ $ $ $ $ $ $ i.% % j.k.l.m.",
"@ n.% % % o.p.8.$ $ $ $ $ $ $ $ $ $ $ $ $ $ $ $ $ $ $ $ $ q.% % r.s.t.u.",
"@ v.% % % w.x.y.$ $ $ $ $ $ $ $ $ $ $ $ $ $ $ $ $ $ z.A.B.C.% D.E.F.G.- ",
"@ H.% % % I.J.K.$ $ $ $ $ $ $ $ $ $ $ $ $ $ $ $ $ L.M.N.O.P.Q.R.S.c T.[ ",
"@ U.% % % V.W.X.Y.$ $ $ $ $ $ $ $ $ $ $ $ $ $ $ $ Z.`. +.+% ++@+#+$+- # ",
"@ %+% % % &+*+=+-+$ $ $ $ $ $ $ $ $ $ $ $ $ $ $ $ ;+>+,+P.'+)+!+~+{+; # ",
"@ ]+% % % ^+/+(+_+$ $ $ $ $ $ $ $ $ $ $ $ $ $ $ $ :+% <+[+}+|+1+2+3+4+# ",
"@ 5+% % % % 6+7+8+9+$ $ $ $ $ $ $ $ $ $ $ $ $ $ $ 0+a+b+c+d+W e+F f+g+; ",
"@ h+% % % % i+j+k+l+m+$ $ $ $ $ $ $ $ $ $ $ $ $ $ n+o+p+q+p+r+s+~ u.t+# ",
"@ u+e.% % % % R.v+w+$ $ $ $ $ $ $ $ (+$ (+$ (+$ (+x+y+z+(+A+B+u.C+[ # # ",
"@ t+D+% % % E+F+G+H+I+$ $ $ $ $ $ $ (+$ (+$ (+$ (+$ $ $ (+J+l ; # # # # ",
"@ ; K+L+M+N+O+P+Q+R+Y.$ $ $ $ $ $ $ $ (+$ $ (+(+(+$ $ (+(+$ $ # # # # # ",
"@ # { S+T+U+V+W+-+X+$ $ $ $ $ $ $ $ (+$ (+$ (+$ (+$ $ $ (+$ $ # # # # # ",
"@ # [ u.Y+6.Z+`+$ $ $ $ $ $ $ $ $ $ (+$ (+$ $ (+$ $ (+(+(+$ $ # # # # # ",
"@ # # [ $ $ $ $ $ $ $ $ $ $ $ $ $ $ $ $ $ $ $ $ $ $ $ $ $ $ $ # # # # # ",
"@ # # # $ $ $ $ $ $ $ $ $ $ $ $ $ $ $ $ $ $ $ $ $ $ $ $ $ $ $ # # # # # ",
"@ # # # # # # # # # # # # # # # # #  @.@.@.@.@.@.@.@.@.@.@.@+@# # # # # ",
"@ # # # # # # # # # # # # # # # # # # # # # # # # # # # # # # # # # # # "};
