/* XPM */
static char * right90_xpm[] = {
"36 36 131 2",
"  	c None",
". 	c #384361",
"+ 	c #646C83",
"@ 	c #8B91A2",
"# 	c #FFFFFF",
"$ 	c #FDFDFD",
"% 	c #F8F8F8",
"& 	c #F3F3F3",
"* 	c #F0F0F0",
"= 	c #EFEFEF",
"- 	c #F7F7F7",
"; 	c #FCFCFC",
"> 	c #C6C6C6",
", 	c #818181",
"' 	c #4C4C4C",
") 	c #252525",
"! 	c #0D0D0D",
"~ 	c #010101",
"{ 	c #0C0C0C",
"] 	c #222222",
"^ 	c #484848",
"/ 	c #7C7C7C",
"( 	c #C0C0C0",
"_ 	c #F9F9F9",
": 	c #B3B2B2",
"< 	c #F5F5F5",
"[ 	c #BFBFBF",
"} 	c #141414",
"| 	c #000000",
"1 	c #070707",
"2 	c #2F2F2F",
"3 	c #9B9B9B",
"4 	c #F1F1F1",
"5 	c #8C8A8A",
"6 	c #373737",
"7 	c #060606",
"8 	c #434343",
"9 	c #C3C3C3",
"0 	c #FBFBFB",
"a 	c #8D8D8D",
"b 	c #1A1A1A",
"c 	c #9F9F9F",
"d 	c #FAFAFA",
"e 	c #C7C7C7",
"f 	c #121212",
"g 	c #0B0B0B",
"h 	c #989898",
"i 	c #DADADA",
"j 	c #E7E7E7",
"k 	c #EEEEEE",
"l 	c #3D3D3D",
"m 	c #5A5A5A",
"n 	c #6C6C6C",
"o 	c #6F6F6F",
"p 	c #6D6D6D",
"q 	c #636363",
"r 	c #030303",
"s 	c #020202",
"t 	c #B0B0B0",
"u 	c #E5E5E5",
"v 	c #747474",
"w 	c #8A90A2",
"x 	c #FEFEFE",
"y 	c #EDEDED",
"z 	c #F4F4F4",
"A 	c #EAEAEA",
"B 	c #CECECE",
"C 	c #8A8A8A",
"D 	c #3B3B3B",
"E 	c #202020",
"F 	c #D7D7D7",
"G 	c #585858",
"H 	c #A1A1A1",
"I 	c #AFAFAF",
"J 	c #404040",
"K 	c #646464",
"L 	c #656565",
"M 	c #424242",
"N 	c #909090",
"O 	c #131313",
"P 	c #090909",
"Q 	c #EBEBEB",
"R 	c #CBCBCB",
"S 	c #1E1E1E",
"T 	c #616161",
"U 	c #D1D1D1",
"V 	c #8A91A2",
"W 	c #D4D4D4",
"X 	c #535353",
"Y 	c #5D5D5D",
"Z 	c #5F5F5F",
"` 	c #D2D2D2",
" .	c #D0D0D0",
"..	c #797979",
"+.	c #1C1C1C",
"@.	c #0A0A0A",
"#.	c #CDCDCD",
"$.	c #040404",
"%.	c #C7CDDD",
"&.	c #57689A",
"*.	c #7482AB",
"=.	c #ABB3CC",
"-.	c #E3E6EE",
";.	c #050505",
">.	c #8F9ABC",
",.	c #203679",
"'.	c #E8E8E8",
").	c #808080",
"!.	c #041D68",
"~.	c #8A8888",
"{.	c #E9E9E9",
"].	c #817F7F",
"^.	c #B9B9B9",
"/.	c #ECECEC",
"(.	c #3C4F89",
"_.	c #E3E3E3",
":.	c #C1C1C1",
"<.	c #E4E4E4",
"[.	c #BBBBBB",
"}.	c #E1E1E1",
"|.	c #BCBCBC",
"1.	c #CACACA",
"2.	c #E0E0E0",
"3.	c #878585",
"4.	c #D6D6D6",
"5.	c #E2E1E1",
"6.	c #B4B3B3",
"7.	c #D8D7D7",
"8.	c #A09F9F",
"9.	c #9A9898",
"0.	c #D9D8D8",
". + + + + + + + + + + + + + + + + + + + + + + + + + + + + + + + + + + + ",
"@ # # # # # # # # # # # # # # # # # # # # # # # # # # # # # # # # # # # ",
"@ # # # # # # # # # # # # # # # # # # # # # # # # # # # # # # # # # # # ",
"@ # # # # # # # # # # $ % & * = * & - $ # # # # # # # # # # # # # # # # ",
"@ # # # # # # # # ; > , ' ) ! ~ { ] ^ / ( _ # # # # # # # # # # # # # # ",
"@ # # # # : < # # [ } ~ | | | | | | | ~ 1 2 3 4 # # # # # # # # # # # # ",
"@ # # # # 5 * # # - 6 | | | | | | | | | | | 7 8 9 0 # # # # # # # # # # ",
"@ # # # # 5 * # # # a ~ | | | | | | | | | | | | b c d # # ; # # # # # # ",
"@ # # # # 5 * # # # e f | | | | | | | | | | | | | g h # # i j # # # # # ",
"@ # # # # 5 * # # # k ^ l m n o p q ^ ) r | | | | | s t $ u v % # # # # ",
"w # # # # 5 * # # # x y * _ x # x 0 z A B C D 7 | | | E F % G H x # # # ",
"w # # # # 5 * # # # # # # # # # # # # # # # y I J 1 | | K - L M - # # # ",
"w # # # # 5 * # # # # # # # # # # # # # # # # # * N O | f e q P Q # # # ",
"w # # # # 5 * # # # # # # # # # # # # # # # # # # x R S | T ' | U # # # ",
"V # # # # 5 * # # # # # # # # # # # # # # # # W , X Y Z 7 1 g | ` # # # ",
"@ # # # # 5 * # # # # # # # # # # # # # # # # x 4  ...+.~ | | @.A # # # ",
"@ # # # # 5 * # # # # # # # # # # # # # # # # # # # # #.^ $.| M - # # # ",
"@ # # # # 5 * # # # # # # # %.&.*.&.# %.*.*.=.-.=.=.%.# k m ;.H # # # # ",
"@ # # # # 5 * # # # # # # # &.=.# >.=.,.-.# &.=.# # &.# # '.).; # # # # ",
"@ # # # # 5 * # # # # # # # &.=.# =.=.!.# # &.# =.=.# # # x _ # # # # # ",
"@ # # # # ~.{.d x # # # # # =.,.%.,.=.!.# # &.# # # # # # # # # # # # # ",
"@ # # # # ].^.( #./.; # # # # -.=.(.# !.-.# (.# # # # # # # # # # # # # ",
"@ # # # # 5 * _ _.( :.k # # # # *.>.# &.=.# &.# # # # # # # # # # # # # ",
"@ # # # # 5 * # # $ <.[.}.# %.>.%.# # # >.*.-.# # # # # # # # # # # # # ",
"@ # # # # 5 * # # # x y |.A # # # # # # # # # # # # # # # # # # # # # # ",
"@ # # # # 5 * # # # # # A |.d # # # # # # # # # # # # # # # # # # # # # ",
"@ # # # # 5 * # # # # # $ 1.2.# # # # # # # # # # # # # # # # # # # # # ",
"@ # # # # 5 * # # # # # # * 9 ; # # # # # # # # # # # # # # # # # # # # ",
"@ # # # # 5 * # # # # # # x ( < # # # # # # # # # # # # # # # # # # # # ",
"@ # # # # 3.4.5.5.5.5.5.5.5.6.7.5.5.5.5.5.5.5.5.5.5.5.5.5.5.z # # # # # ",
"@ # # # # 8.9.9.9.9.9.9.9.9.9.9.9.9.9.9.9.9.9.9.9.9.9.9.9.9.0.# # # # # ",
"@ # # # # # # # # # # # # # # # # # # # # # # # # # # # # # # # # # # # ",
"@ # # # # # # # # # # # # # # # # # # # # # # # # # # # # # # # # # # # ",
"@ # # # # # # # # # # # # # # # # # # # # # # # # # # # # # # # # # # # ",
"@ # # # # # # # # # # # # # # # # # # # # # # # # # # # # # # # # # # # ",
"@ # # # # # # # # # # # # # # # # # # # # # # # # # # # # # # # # # # # "};
