/* XPM */
static char * stock_zoom_out_menu_xpm[] = {
"16 16 116 2",
"  	c None",
". 	c #000000",
"+ 	c #31312E",
"@ 	c #6C6C63",
"# 	c #8B8B7F",
"$ 	c #818176",
"% 	c #464640",
"& 	c #0B0B0A",
"* 	c #121211",
"= 	c #81817A",
"- 	c #DEDED4",
"; 	c #DEDED2",
"> 	c #DDDDCE",
", 	c #DFDFCF",
"' 	c #DBDBC9",
") 	c #AEAE9F",
"! 	c #20201E",
"~ 	c #808079",
"{ 	c #E1E1DA",
"] 	c #F3F3EE",
"^ 	c #EFEFE7",
"/ 	c #E6E6D9",
"( 	c #DEDECE",
"_ 	c #D3D3C2",
": 	c #CDCDBC",
"< 	c #919185",
"[ 	c #191917",
"} 	c #DCDCD1",
"| 	c #F0F0EB",
"1 	c #FCFCFA",
"2 	c #F6F6F1",
"3 	c #E4E4D8",
"4 	c #D7D7C7",
"5 	c #CBCBBA",
"6 	c #C4C4B3",
"7 	c #BBBBAB",
"8 	c #66665D",
"9 	c #6C6C64",
"0 	c #DDDDD1",
"a 	c #ECECE3",
"b 	c #F4F4ED",
"c 	c #EDEDE4",
"d 	c #DBDBCE",
"e 	c #CFCFBF",
"f 	c #C3C3B3",
"g 	c #BCBCAC",
"h 	c #B3B3A4",
"i 	c #929285",
"j 	c #8C8C81",
"k 	c #DEDECF",
"l 	c #4B4B46",
"m 	c #AAAA9B",
"n 	c #A2A293",
"o 	c #838379",
"p 	c #DEDECD",
"q 	c #A9A99C",
"r 	c #8B8B80",
"s 	c #86867C",
"t 	c #808075",
"u 	c #7B7B70",
"v 	c #76766B",
"w 	c #717167",
"x 	c #A3A394",
"y 	c #919184",
"z 	c #454540",
"A 	c #D6D6C5",
"B 	c #D0D0BF",
"C 	c #C7C7B7",
"D 	c #C1C1B0",
"E 	c #B8B8A8",
"F 	c #B1B1A2",
"G 	c #A9A99A",
"H 	c #9A9A8B",
"I 	c #606057",
"J 	c #AAAA9C",
"K 	c #C8C8B7",
"L 	c #C0C0B0",
"M 	c #B9B9A9",
"N 	c #B0B0A1",
"O 	c #A1A193",
"P 	c #9B9B8C",
"Q 	c #858579",
"R 	c #2A2A26",
"S 	c #1F1F1D",
"T 	c #8D8D81",
"U 	c #B6B6A7",
"V 	c #B0B0A0",
"W 	c #A7A798",
"X 	c #A1A192",
"Y 	c #98988A",
"Z 	c #848478",
"` 	c #2D2D29",
" .	c #080604",
"..	c #090500",
"+.	c #181816",
"@.	c #63635A",
"#.	c #8E8E82",
"$.	c #9E9E8F",
"%.	c #5E5E56",
"&.	c #292925",
"*.	c #786A5B",
"=.	c #654829",
"-.	c #1F1000",
";.	c #060300",
">.	c #604529",
",.	c #CBAE8F",
"'.	c #8B653D",
").	c #1C0F00",
"!.	c #6A4A29",
"~.	c #100800",
"{.	c #211100",
"].	c #704D29",
"^.	c #3F3429",
"/.	c #180C00",
"(.	c #554330",
"_.	c #26211B",
"        . . . . .               ",
"      . + @ # $ % &             ",
"    * = - ; > , ' ) ! .         ",
"  . ~ { ] ^ / ( _ : < [         ",
". + } | 1 2 3 4 5 6 7 8 .       ",
". 9 0 a b c d e f g h i .       ",
". j k l . . . . . . m n .       ",
". o p q r s t u v w x y .       ",
". z A B C D E F G n H I .       ",
"  & J K L M N m O P Q R .       ",
"    S T U V W X Y Z `  ...      ",
"    . +.@.#.$.#.%.&. .*.=.-.    ",
"        . . . . . . ;.>.,.'.-.  ",
"                      ).'.,.!.~.",
"                        {.].,.^.",
"                          /.(._."};
