/* XPM */
static char * zoom_in_xpm[] = {
"36 36 377 2",
"  	c None",
". 	c #384361",
"+ 	c #646C83",
"@ 	c #8B91A2",
"# 	c #FFFFFF",
"$ 	c #FDFDFD",
"% 	c #FBFBFB",
"& 	c #F9F9F9",
"* 	c #FCFCFC",
"= 	c #FEFEFE",
"- 	c #F3F3F3",
"; 	c #D5D5D5",
"> 	c #B2B2B2",
", 	c #9B9B9B",
"' 	c #939393",
") 	c #949494",
"! 	c #9C9C9C",
"~ 	c #D1D1D1",
"{ 	c #F0F0F0",
"] 	c #F8F8F8",
"^ 	c #CFCFCF",
"/ 	c #929292",
"( 	c #AAAAAB",
"_ 	c #888B93",
": 	c #686D7E",
"< 	c #565D71",
"[ 	c #4E556A",
"} 	c #52586D",
"| 	c #545866",
"1 	c #75777E",
"2 	c #B7B7B7",
"3 	c #EAEAEA",
"4 	c #F4F4F4",
"5 	c #B5B5B5",
"6 	c #909090",
"7 	c #CDCDCD",
"8 	c #9B9FAA",
"9 	c #646C82",
"0 	c #A3AAB9",
"a 	c #D6DDE4",
"b 	c #EFF5F7",
"c 	c #F6FCFC",
"d 	c #F6FBFC",
"e 	c #D5DCE3",
"f 	c #A4AAB8",
"g 	c #5D6376",
"h 	c #797C84",
"i 	c #CBCBCB",
"j 	c #BCBCBC",
"k 	c #969696",
"l 	c #D0D0D1",
"m 	c #777D8F",
"n 	c #B3B9C6",
"o 	c #EDF5F6",
"p 	c #EFFAFA",
"q 	c #ECF9FA",
"r 	c #EAF9F9",
"s 	c #F1F8F9",
"t 	c #A2A8B5",
"u 	c #595D6C",
"v 	c #B4B5B5",
"w 	c #F5F5F5",
"x 	c #DBDBDB",
"y 	c #71788B",
"z 	c #C4CBD5",
"A 	c #E8F8F9",
"B 	c #E3F7F8",
"C 	c #DFF6F7",
"D 	c #DEF6F7",
"E 	c #EFF9FA",
"F 	c #B2B9C4",
"G 	c #676B77",
"H 	c #BEBEBE",
"I 	c #F6F6F6",
"J 	c #B9B9B9",
"K 	c #A2A5B0",
"L 	c #AFB6C3",
"M 	c #E4F7F8",
"N 	c #DBF3F4",
"O 	c #C8E4E5",
"P 	c #BFDDDE",
"Q 	c #BAD9DA",
"R 	c #BEDEDF",
"S 	c #D0EFF0",
"T 	c #D3F1F3",
"U 	c #CCE8E9",
"V 	c #D6EFF0",
"W 	c #A4A9B2",
"X 	c #8B8D93",
"Y 	c #C8C8C8",
"Z 	c #8A90A2",
"` 	c #ECECEC",
" .	c #A5A5A5",
"..	c #D6D6D7",
"+.	c #757C8F",
"@.	c #CDE6E7",
"#.	c #ADCCCE",
"$.	c #C3E6E7",
"%.	c #CBF0F1",
"&.	c #C8EDEE",
"*.	c #ACD2D3",
"=.	c #B2D7D8",
"-.	c #CCF1F2",
";.	c #C1E4E5",
">.	c #97B7B8",
",.	c #C4DDDE",
"'.	c #EFF7F7",
").	c #505563",
"!.	c #212121",
"~.	c #C9C9C9",
"{.	c #4A4A4A",
"].	c #535353",
"^.	c #D3D3D3",
"/.	c #565656",
"(.	c #464646",
"_.	c #C6C6C6",
":.	c #E3E3E3",
"<.	c #9F9F9F",
"[.	c #AFB1B7",
"}.	c #BABFC9",
"|.	c #DCF0F1",
"1.	c #A4C1C2",
"2.	c #CBEEEF",
"3.	c #C9F0F2",
"4.	c #C7F0F2",
"5.	c #C5EEF0",
"6.	c #B8E1E3",
"7.	c #ABCECF",
"8.	c #A1BEBF",
"9.	c #DBEFF0",
"0.	c #8F94A0",
"a.	c #3D3E41",
"b.	c #6B6B6B",
"c.	c #7A7A7A",
"d.	c #808080",
"e.	c #656565",
"f.	c #E1E1E1",
"g.	c #A4A4A4",
"h.	c #8D909C",
"i.	c #E1E7EB",
"j.	c #C1D7D8",
"k.	c #B5D3D4",
"l.	c #CDF1F2",
"m.	c #C5EFF1",
"n.	c #C4EFF1",
"o.	c #C7F0F1",
"p.	c #BDDBDC",
"q.	c #B4CACB",
"r.	c #EBF9F9",
"s.	c #B5BBC3",
"t.	c #404249",
"u.	c #A2A2A2",
"v.	c #E9E9E9",
"w.	c #E6E6E6",
"x.	c #ADADAD",
"y.	c #818592",
"z.	c #E8EEF1",
"A.	c #B4CBCC",
"B.	c #BFDDDF",
"C.	c #C3EFF1",
"D.	c #C6EFF1",
"E.	c #B0D5D7",
"F.	c #D3F2F3",
"G.	c #ADC5C6",
"H.	c #D6E5E5",
"I.	c #C1C8CE",
"J.	c #4A4D55",
"K.	c #A7A7A7",
"L.	c #6A6A6A",
"M.	c #8A91A2",
"N.	c #F1F1F1",
"O.	c #848792",
"P.	c #ECF0F2",
"Q.	c #BEDCDE",
"R.	c #B9E4E6",
"S.	c #B8E3E5",
"T.	c #BDE8EA",
"U.	c #B4DFE1",
"V.	c #B1D6D7",
"W.	c #D4F3F4",
"X.	c #D0E7E8",
"Y.	c #B4C2C3",
"Z.	c #AEB4BC",
"`.	c #4A4C53",
" +	c #AFAFAF",
".+	c #C3C3C3",
"++	c #696969",
"@+	c #BFBFBF",
"#+	c #8B8D94",
"$+	c #C6CBD0",
"%+	c #EDF9FA",
"&+	c #C0D6D7",
"*+	c #B3D0D1",
"=+	c #CDF2F3",
"-+	c #C8F0F2",
";+	c #C1EAEC",
">+	c #AED8DA",
",+	c #8BB5B7",
"'+	c #8FB9BB",
")+	c #BDE7E9",
"!+	c #B2D6D7",
"~+	c #D6F4F5",
"{+	c #E1F6F7",
"]+	c #C5D2D2",
"^+	c #6E7582",
"/+	c #5B5C5F",
"(+	c #BDBDBD",
"_+	c #6F6F6F",
":+	c #737373",
"<+	c #787878",
"[+	c #E0E0E0",
"}+	c #9E9F9F",
"|+	c #858A96",
"1+	c #F0FAFA",
"2+	c #DCEFEF",
"3+	c #A2BDBE",
"4+	c #CBEDEE",
"5+	c #CBF1F2",
"6+	c #C9F1F2",
"7+	c #95BDBF",
"8+	c #A2CACB",
"9+	c #C9EFF0",
"0+	c #B4D6D7",
"a+	c #DAF5F5",
"b+	c #E5F7F8",
"c+	c #E4EEEF",
"d+	c #2F3443",
"e+	c #A1A1A1",
"f+	c #A6A6A6",
"g+	c #3C3C3C",
"h+	c #434343",
"i+	c #6C6F79",
"j+	c #C9D0D4",
"k+	c #CDE4E4",
"l+	c #ACC9CA",
"m+	c #C5E5E6",
"n+	c #CEF0F1",
"o+	c #CCF0F1",
"p+	c #9ABEBF",
"q+	c #B0D3D4",
"r+	c #D0F2F3",
"s+	c #BFDFE0",
"t+	c #D8EFEF",
"u+	c #9198A3",
"v+	c #7A7C83",
"w+	c #3F3F3F",
"x+	c #8F8F8F",
"y+	c #DADADA",
"z+	c #6C6C6C",
"A+	c #717171",
"B+	c #747474",
"C+	c #EDEDED",
"D+	c #9F9FA0",
"E+	c #616673",
"F+	c #DBE3E6",
"G+	c #E9F8F9",
"H+	c #E0F5F5",
"I+	c #CDE5E6",
"J+	c #C5DFE0",
"K+	c #C2DFE0",
"L+	c #C5E2E3",
"M+	c #D4F0F1",
"N+	c #D8F3F3",
"O+	c #D2EAEB",
"P+	c #DCF1F2",
"Q+	c #E7F7F7",
"R+	c #C6CED4",
"S+	c #878B98",
"T+	c #B4B4B4",
"U+	c #EFEFEF",
"V+	c #EBEBEB",
"W+	c #929394",
"X+	c #5B606E",
"Y+	c #C4CCD1",
"Z+	c #EEF9FA",
"`+	c #E2F7F8",
" @	c #ECF8F8",
".@	c #9DA5AF",
"+@	c #A0A3AC",
"@@	c #CBCCCD",
"#@	c #7F7F7F",
"$@	c #C5C5C5",
"%@	c #E4E4E4",
"&@	c #989899",
"*@	c #5A5D68",
"=@	c #797F8C",
"-@	c #C3CAD0",
";@	c #ECF5F6",
">@	c #E3ECEE",
",@	c #ACB4BC",
"'@	c #6B7281",
")@	c #B2B5BD",
"!@	c #6B6D74",
"~@	c #2C2E34",
"{@	c #5A5A5C",
"]@	c #B6B6B6",
"^@	c #7C7D7E",
"/@	c #60626B",
"(@	c #646876",
"_@	c #757A88",
":@	c #757A89",
"<@	c #747988",
"[@	c #808492",
"}@	c #B4B6BE",
"|@	c #EDEDEE",
"1@	c #A0A0A0",
"2@	c #757575",
"3@	c #656870",
"4@	c #2D303A",
"5@	c #464649",
"6@	c #6E6E6E",
"7@	c #E5E5E5",
"8@	c #848484",
"9@	c #818181",
"0@	c #9E9E9E",
"a@	c #919191",
"b@	c #7C7C7C",
"c@	c #F8F9F9",
"d@	c #9C9EA6",
"e@	c #313541",
"f@	c #313337",
"g@	c #5C5C5C",
"h@	c #C0C0C0",
"i@	c #E2E2E2",
"j@	c #B3B3B3",
"k@	c #CACACA",
"l@	c #B7B9BF",
"m@	c #3A3E4C",
"n@	c #30333A",
"o@	c #4F4F50",
"p@	c #5E5E5E",
"q@	c #242424",
"r@	c #CFD1D5",
"s@	c #464B5A",
"t@	c #31353F",
"u@	c #444446",
"v@	c #989898",
"w@	c #EEEEEE",
"x@	c #000000",
"y@	c #E3E4E7",
"z@	c #575C6D",
"A@	c #333845",
"B@	c #3E3F42",
"C@	c #F0F1F2",
"D@	c #6C7182",
"E@	c #363B4C",
"F@	c #3A3C41",
"G@	c #222222",
"H@	c #484848",
"I@	c #F9FAFA",
"J@	c #858A99",
"K@	c #393F53",
"L@	c #383B43",
"M@	c #616161",
"N@	c #C7C7C7",
"O@	c #FAFAFA",
"P@	c #DEDEDE",
"Q@	c #080808",
"R@	c #383838",
"S@	c #A1A5B2",
"T@	c #3E455B",
"U@	c #383C48",
"V@	c #525253",
"W@	c #BBBFC9",
"X@	c #454D65",
"Y@	c #393E4E",
"Z@	c #494A4B",
"`@	c #424242",
" #	c #101010",
".#	c #676767",
"+#	c #D2D5DC",
"@#	c #535C74",
"##	c #4C4F58",
"$#	c #8C8C8C",
"%#	c #E8E8E8",
"&#	c #D8D8D8",
"*#	c #F2F2F2",
". + + + + + + + + + + + + + + + + + + + + + + + + + + + + + + + + + + + ",
"@ # # # # # # # # # # # # # # # # # # # # # # # # # # # # # # # # # # # ",
"@ # # # # # # # # # # # # # # # # # # # # # # # # # # # # # # # # # # # ",
"@ # # # # # # # $ % & & * = # # # # # # # # # # # # # # # # # # # # # # ",
"@ # # # # = - ; > , ' ) ! > ~ { $ # # # # # # # # # # # # # # # # # # # ",
"@ # # # ] ^ , / ( _ : < [ } | 1 2 3 $ # # # # # # # # # # # # # # # # # ",
"@ # # 4 5 6 7 8 9 0 a b c d e f g h i ] # # # # # # # # # # # # # # # # ",
"@ # ] j k l m n o p q r r r q p s t u v w # # # # # # # # # # # # # # # ",
"@ = x k ~ y z p A B C D D D C B A E F G H I # # # # # # # # # # # # # # ",
"@ ] J j K L p M N O P Q R S T U V M p W X Y % # # # # # # # # # # # # # ",
"Z `  ...+.s A @.#.$.%.&.*.=.-.;.>.,.A '.).!. .~.{.].^.# ; /.(._.# # # # ",
"Z :.<.[.}.p |.1.2.3.4.4.5.6.4.3.7.8.9.p 0.a.2 & b.c.# # # d.e.# # # # # ",
"Z f.g.h.i.q j.k.l.4.m.n.n.n.m.o.=.p.q.r.s.t.u.v.b.c.# # # d.e.# # # # # ",
"Z w.x.y.z.q A.B.-.4.n.n.C.n.n.D.E.F.G.H.I.J.K.^.L.c.# # # d.e.# # # # # ",
"M.N.x.O.P.q q.Q.l.4.R.S.T.S.U.D.V.W.X.Y.Z.`. +.+++c.# # # d.e.# # # # # ",
"@ % @+#+$+%+&+*+=+-+;+>+,+'+)+-+!+~+{+]+^+/+x.(+_+:+# # # <+b.# # # # # ",
"@ = [+}+|+1+2+3+4+5+6+-+7+8+6+9+0+a+b+c+d+(.e+_.f+g+= # # h+u.# # # # # ",
"@ # & J i+j+r.k+l+m+n+o+p+q+r+s+l+t+r.u+v+w+x+y+* z+A+K.B+++% # # # # # ",
"@ # # C+D+E+F+G+H+I+J+K+L+M+N+O+P+Q+R+S+& T+' U+# # I V+w # # # # # # # ",
"@ # # = :.W+X+Y+Z+G+b+B `+B b+G+ @.@+@@@g.#@$@* # # # # # # # # # # # # ",
"@ # # # = %@&@*@=@-@;@p p p >@,@'@)@] !@~@{@@+v.= # # # # # # # # # # # ",
"@ # # # # # N.]@^@/@(@_@:@<@[@}@|@x 1@2@3@4@5@6@~ $ # # # # # # # # # # ",
"@ # # # # # # * 7@ +8@9@6 ! 0@a@b@A+/ ; c@d@e@f@g@h@& # # # # # # # # # ",
"@ # # # # # # # # $ 4 i@Y j@x.5 k@w.& # # # l@m@n@o@x.4 # # # # # # # # ",
"@ # # # # # # # p@q@q@1@# = = = # # # # # # # r@s@t@u@v@w@# # # # # # # ",
"@ # # # # # # # h+x@x@6 # # # # # # # # # # # # y@z@A@B@8@i@= # # # # # ",
"@ # # # # # # # h+x@x@6 # # # # # # # # # # # # # C@D@E@F@:+; * # # # # ",
"@ # # # U+8@d.d.G@x@x@H@d.d.! # # # # # # # # # # # I@J@K@L@M@N@O@# # # ",
"@ # # # P@Q@x@x@x@x@x@x@x@x@R@# # # # # # # # # # # # = S@T@U@V@> I # # ",
"@ # # # P@Q@x@x@x@x@x@x@x@x@R@# # # # # # # # # # # # # # W@X@Y@Z@1@{ # ",
"@ # # # w.`@g+g+ #x@x@G@g+g+.## # # # # # # # # # # # # # # +#@###(.$#%#",
"@ # # # # # # # h+x@x@6 # # # # # # # # # # # # # # # # # # # O@[+J > &#",
"@ # # # # # # # h+x@x@6 # # # # # # # # # # # # # # # # # # # # # # # # ",
"@ # # # # # # # h+x@x@6 # # # # # # # # # # # # # # # # # # # # # # # # ",
"@ # # # # # # # 3 i@i@*## # # # # # # # # # # # # # # # # # # # # # # # ",
"@ # # # # # # # # # # # # # # # # # # # # # # # # # # # # # # # # # # # "};
