/* XPM */
static char * zoom_out_xpm[] = {
"36 36 372 2",
"  	c None",
". 	c #384361",
"+ 	c #646C83",
"@ 	c #8B91A2",
"# 	c #FFFFFF",
"$ 	c #FDFDFD",
"% 	c #FBFBFB",
"& 	c #F9F9F9",
"* 	c #FCFCFC",
"= 	c #FEFEFE",
"- 	c #F3F3F3",
"; 	c #D5D5D5",
"> 	c #B2B2B2",
", 	c #9B9B9B",
"' 	c #939393",
") 	c #949494",
"! 	c #9C9C9C",
"~ 	c #D1D1D1",
"{ 	c #F0F0F0",
"] 	c #F8F8F8",
"^ 	c #CFCFCF",
"/ 	c #929292",
"( 	c #AAAAAB",
"_ 	c #888B93",
": 	c #686D7E",
"< 	c #565D71",
"[ 	c #4E556A",
"} 	c #52586D",
"| 	c #545866",
"1 	c #75777E",
"2 	c #B7B7B7",
"3 	c #EAEAEA",
"4 	c #F4F4F4",
"5 	c #B5B5B5",
"6 	c #909090",
"7 	c #CDCDCD",
"8 	c #9B9FAA",
"9 	c #646C82",
"0 	c #A4ABBA",
"a 	c #D6DDE4",
"b 	c #F0F5F7",
"c 	c #F7FCFC",
"d 	c #D6DCE3",
"e 	c #A4AAB8",
"f 	c #5D6376",
"g 	c #797C84",
"h 	c #CBCBCB",
"i 	c #BCBCBC",
"j 	c #969696",
"k 	c #D0D0D1",
"l 	c #777D8F",
"m 	c #B4BAC6",
"n 	c #EEF5F7",
"o 	c #F0FAFB",
"p 	c #EDFAFA",
"q 	c #EDF9FA",
"r 	c #F2F9F9",
"s 	c #A2A9B6",
"t 	c #595D6C",
"u 	c #B4B5B5",
"v 	c #F5F5F5",
"w 	c #DBDBDB",
"x 	c #71788B",
"y 	c #C5CBD6",
"z 	c #EAF9F9",
"A 	c #E7F8F8",
"B 	c #E5F7F8",
"C 	c #E5F8F8",
"D 	c #B3BAC5",
"E 	c #676B77",
"F 	c #BEBEBE",
"G 	c #F6F6F6",
"H 	c #B9B9B9",
"I 	c #A2A5B0",
"J 	c #AFB6C4",
"K 	c #E2F7F7",
"L 	c #DFF6F7",
"M 	c #DEF5F6",
"N 	c #DDF5F6",
"O 	c #DEF5F7",
"P 	c #A4A9B3",
"Q 	c #8B8D93",
"R 	c #C8C8C8",
"S 	c #8A90A2",
"T 	c #ECECEC",
"U 	c #A5A5A5",
"V 	c #D6D6D7",
"W 	c #757C8F",
"X 	c #F1F9FA",
"Y 	c #E2F6F7",
"Z 	c #D9F3F4",
"` 	c #CFEBEB",
" .	c #D0ECED",
"..	c #D6F2F4",
"+.	c #D7F3F4",
"@.	c #D8F4F5",
"#.	c #D4F1F2",
"$.	c #C4E0E1",
"%.	c #C8E2E3",
"&.	c #F0F7F8",
"*.	c #505563",
"=.	c #212121",
"-.	c #C9C9C9",
";.	c #4A4A4A",
">.	c #535353",
",.	c #D3D3D3",
"'.	c #565656",
").	c #464646",
"!.	c #C6C6C6",
"~.	c #E3E3E3",
"{.	c #9F9F9F",
"].	c #AFB1B7",
"^.	c #BAC0C9",
"/.	c #D5ECED",
"(.	c #A5C1C2",
"_.	c #9DBDBE",
":.	c #B1D1D3",
"<.	c #B1D1D2",
"[.	c #C4E3E5",
"}.	c #D0F0F2",
"|.	c #ACCCCD",
"1.	c #96B5B7",
"2.	c #9EBBBB",
"3.	c #D4EBEB",
"4.	c #8F95A1",
"5.	c #3D3E41",
"6.	c #6B6B6B",
"7.	c #7A7A7A",
"8.	c #808080",
"9.	c #656565",
"0.	c #E1E1E1",
"a.	c #A4A4A4",
"b.	c #8D909C",
"c.	c #E2E7EC",
"d.	c #EEFAFA",
"e.	c #B1C8C9",
"f.	c #9CB9BA",
"g.	c #C4E4E5",
"h.	c #CEF2F3",
"i.	c #CCF1F2",
"j.	c #AED2D3",
"k.	c #ACD0D1",
"l.	c #BEDEE0",
"m.	c #9FBDBD",
"n.	c #A7BFBF",
"o.	c #DBEEEF",
"p.	c #B6BCC3",
"q.	c #404249",
"r.	c #A2A2A2",
"s.	c #E9E9E9",
"t.	c #E6E6E6",
"u.	c #ADADAD",
"v.	c #818592",
"w.	c #E9EEF1",
"x.	c #E2F4F4",
"y.	c #A3BABC",
"z.	c #A0BCBD",
"A.	c #D0EFF0",
"B.	c #CFF2F3",
"C.	c #CAF1F2",
"D.	c #C4EBED",
"E.	c #BDE4E6",
"F.	c #B3D7D8",
"G.	c #D3F3F4",
"H.	c #CEEBEC",
"I.	c #ABC3C4",
"J.	c #ADC1C1",
"K.	c #E5F2F2",
"L.	c #C2C8CE",
"M.	c #4A4D55",
"N.	c #A7A7A7",
"O.	c #6A6A6A",
"P.	c #8A91A2",
"Q.	c #F1F1F1",
"R.	c #848792",
"S.	c #ECF1F2",
"T.	c #E0F2F2",
"U.	c #A1B9BA",
"V.	c #A2BEBF",
"W.	c #D1F1F2",
"X.	c #B5DCDD",
"Y.	c #C6EDEE",
"Z.	c #ADD1D2",
"`.	c #D3F2F4",
" +	c #D7F4F5",
".+	c #DAF2F3",
"++	c #B8CBCC",
"@+	c #B9C6C7",
"#+	c #AFB5BD",
"$+	c #4A4C53",
"%+	c #AFAFAF",
"&+	c #C3C3C3",
"*+	c #696969",
"=+	c #BFBFBF",
"-+	c #8B8D94",
";+	c #C6CBD1",
">+	c #E4F6F7",
",+	c #A7BFC0",
"'+	c #9EBBBC",
")+	c #CBEBED",
"!+	c #ABCDCF",
"~+	c #CEF1F2",
"{+	c #B3D6D7",
"]+	c #CBEBEC",
"^+	c #DEF6F7",
"/+	c #E3F5F6",
"(+	c #C0CBCB",
"_+	c #6F7582",
":+	c #5B5C5F",
"<+	c #BDBDBD",
"[+	c #6F6F6F",
"}+	c #737373",
"|+	c #787878",
"1+	c #E0E0E0",
"2+	c #9E9F9F",
"3+	c #858A96",
"4+	c #F1FAFB",
"5+	c #E8F8F9",
"6+	c #C7DDDE",
"7+	c #9DB9B9",
"8+	c #AAC8C9",
"9+	c #BEDDDE",
"0+	c #B4D2D3",
"a+	c #B5D3D4",
"b+	c #D4F2F4",
"c+	c #B9D8D9",
"d+	c #AECDCE",
"e+	c #D8F4F4",
"f+	c #E0F6F7",
"g+	c #E5EEEF",
"h+	c #2F3443",
"i+	c #A1A1A1",
"j+	c #A6A6A6",
"k+	c #3C3C3C",
"l+	c #434343",
"m+	c #6C6F79",
"n+	c #CAD0D5",
"o+	c #ECF9FA",
"p+	c #E3F7F8",
"q+	c #D1E9EA",
"r+	c #C2DCDD",
"s+	c #C7E2E2",
"t+	c #D5F0F0",
"u+	c #D8F3F4",
"v+	c #D9F4F5",
"w+	c #D2EDED",
"x+	c #C1DADB",
"y+	c #C3DBDC",
"z+	c #E0F3F4",
"A+	c #9198A4",
"B+	c #7A7C83",
"C+	c #3F3F3F",
"D+	c #8F8F8F",
"E+	c #DADADA",
"F+	c #6C6C6C",
"G+	c #717171",
"H+	c #747474",
"I+	c #EDEDED",
"J+	c #9F9FA0",
"K+	c #616673",
"L+	c #DCE4E6",
"M+	c #EBF9F9",
"N+	c #E6F8F8",
"O+	c #E1F6F7",
"P+	c #C7CFD4",
"Q+	c #878B98",
"R+	c #B4B4B4",
"S+	c #EFEFEF",
"T+	c #EBEBEB",
"U+	c #929394",
"V+	c #5B606F",
"W+	c #C5CCD1",
"X+	c #EFFAFA",
"Y+	c #E9F8F9",
"Z+	c #E7F8F9",
"`+	c #EDF8F9",
" @	c #9EA6B0",
".@	c #A0A3AC",
"+@	c #CBCCCD",
"@@	c #7F7F7F",
"#@	c #C5C5C5",
"$@	c #E4E4E4",
"%@	c #989899",
"&@	c #5A5D68",
"*@	c #797F8C",
"=@	c #C3CBD0",
"-@	c #ECF5F6",
";@	c #F0FBFB",
">@	c #E4EDEF",
",@	c #ADB4BD",
"'@	c #6C7282",
")@	c #B2B5BD",
"!@	c #6B6D74",
"~@	c #2C2E34",
"{@	c #5A5A5C",
"]@	c #B6B6B6",
"^@	c #7C7D7E",
"/@	c #60626B",
"(@	c #646876",
"_@	c #757A88",
":@	c #757A89",
"<@	c #747A88",
"[@	c #808492",
"}@	c #B4B6BE",
"|@	c #EDEDEE",
"1@	c #A0A0A0",
"2@	c #757575",
"3@	c #656870",
"4@	c #2D303A",
"5@	c #464649",
"6@	c #6E6E6E",
"7@	c #E5E5E5",
"8@	c #848484",
"9@	c #818181",
"0@	c #9E9E9E",
"a@	c #919191",
"b@	c #7C7C7C",
"c@	c #F8F9F9",
"d@	c #9C9EA6",
"e@	c #313541",
"f@	c #313337",
"g@	c #5C5C5C",
"h@	c #C0C0C0",
"i@	c #E2E2E2",
"j@	c #B3B3B3",
"k@	c #CACACA",
"l@	c #B7B9BF",
"m@	c #3A3E4C",
"n@	c #30333A",
"o@	c #4F4F50",
"p@	c #CFD1D5",
"q@	c #464B5A",
"r@	c #31353F",
"s@	c #444446",
"t@	c #989898",
"u@	c #EEEEEE",
"v@	c #E3E4E7",
"w@	c #575C6D",
"x@	c #333845",
"y@	c #3E3F42",
"z@	c #F0F1F2",
"A@	c #6C7182",
"B@	c #363B4C",
"C@	c #3A3C41",
"D@	c #F9FAFA",
"E@	c #858A99",
"F@	c #393F53",
"G@	c #383B43",
"H@	c #616161",
"I@	c #C7C7C7",
"J@	c #FAFAFA",
"K@	c #DEDEDE",
"L@	c #080808",
"M@	c #000000",
"N@	c #383838",
"O@	c #A1A5B2",
"P@	c #3E455B",
"Q@	c #383C48",
"R@	c #525253",
"S@	c #BBBFC9",
"T@	c #454D65",
"U@	c #393E4E",
"V@	c #494A4B",
"W@	c #424242",
"X@	c #3D3D3D",
"Y@	c #676767",
"Z@	c #D2D5DC",
"`@	c #535C74",
" #	c #4C4F58",
".#	c #8C8C8C",
"+#	c #E8E8E8",
"@#	c #D8D8D8",
". + + + + + + + + + + + + + + + + + + + + + + + + + + + + + + + + + + + ",
"@ # # # # # # # # # # # # # # # # # # # # # # # # # # # # # # # # # # # ",
"@ # # # # # # # # # # # # # # # # # # # # # # # # # # # # # # # # # # # ",
"@ # # # # # # # $ % & & * = # # # # # # # # # # # # # # # # # # # # # # ",
"@ # # # # = - ; > , ' ) ! > ~ { $ # # # # # # # # # # # # # # # # # # # ",
"@ # # # ] ^ , / ( _ : < [ } | 1 2 3 $ # # # # # # # # # # # # # # # # # ",
"@ # # 4 5 6 7 8 9 0 a b c c d e f g h ] # # # # # # # # # # # # # # # # ",
"@ # ] i j k l m n o p q q q p o r s t u v # # # # # # # # # # # # # # # ",
"@ = w j ~ x y o z A B C C C B A z o D E F G # # # # # # # # # # # # # # ",
"@ ] H i I J o A K L M N O O M L K A o P Q R % # # # # # # # # # # # # # ",
"S T U V W X z Y Z `  ...+.@.#.$.%.Y z &.*.=.U -.;.>.,.# ; '.).!.# # # # ",
"S ~.{.].^.o A /.(._.:.<.[.}.|.1.2.3.A o 4.5.2 & 6.7.# # # 8.9.# # # # # ",
"S 0.a.b.c.d.B e.f.g.h.i.j.i.k.l.m.n.o.p p.q.r.s.6.7.# # # 8.9.# # # # # ",
"S t.u.v.w.d.x.y.z.A.B.C.D.E.F.G.H.I.J.K.L.M.N.,.O.7.# # # 8.9.# # # # # ",
"P.Q.u.R.S.d.T.U.V.W.h.C.X.Y.Z.`. +.+++@+#+$+%+&+*+7.# # # 8.9.# # # # # ",
"@ % =+-+;+d.>+,+'+)+B.B.!+~+{+]+@.^+/+(+_+:+u.<+[+}+# # # |+6.# # # # # ",
"@ = 1+2+3+4+5+6+7+8+9+0+a+b+c+d+e+f+5+g+h+).i+!.j+k+= # # l+r.# # # # # ",
"@ # & H m+n+o+p+q+r+s+t+u+v+w+x+y+z+q A+B+C+D+E+* F+G+N.H+*+% # # # # # ",
"@ # # I+J+K+L+M+N+p+O+f+f+f+O+p+N+z P+Q+& R+' S+# # G T+v # # # # # # # ",
"@ # # = ~.U+V+W+X+M+Y+Z+A Z+Y+M+`+ @.@+@a.@@#@* # # # # # # # # # # # # ",
"@ # # # = $@%@&@*@=@-@;@o ;@>@,@'@)@] !@~@{@=+s.= # # # # # # # # # # # ",
"@ # # # # # Q.]@^@/@(@_@:@<@[@}@|@w 1@2@3@4@5@6@~ $ # # # # # # # # # # ",
"@ # # # # # # * 7@%+8@9@6 ! 0@a@b@G+/ ; c@d@e@f@g@h@& # # # # # # # # # ",
"@ # # # # # # # # $ 4 i@R j@u.5 k@t.& # # # l@m@n@o@u.4 # # # # # # # # ",
"@ # # # # # # # # # # # # = = = # # # # # # # p@q@r@s@t@u@# # # # # # # ",
"@ # # # # # # # # # # # # # # # # # # # # # # # v@w@x@y@8@i@= # # # # # ",
"@ # # # # # # # # # # # # # # # # # # # # # # # # z@A@B@C@}+; * # # # # ",
"@ # # # S+8@8.8.8.@@8.9@8.8.! # # # # # # # # # # # D@E@F@G@H@I@J@# # # ",
"@ # # # K@L@M@M@M@M@M@M@M@M@N@# # # # # # # # # # # # = O@P@Q@R@> G # # ",
"@ # # # K@L@M@M@M@M@M@M@M@M@N@# # # # # # # # # # # # # # S@T@U@V@1@{ # ",
"@ # # # t.W@k+k+k+k+k+X@k+k+Y@# # # # # # # # # # # # # # # Z@`@ #)..#+#",
"@ # # # # # # # # # # # # # # # # # # # # # # # # # # # # # # J@1+H > @#",
"@ # # # # # # # # # # # # # # # # # # # # # # # # # # # # # # # # # # # ",
"@ # # # # # # # # # # # # # # # # # # # # # # # # # # # # # # # # # # # ",
"@ # # # # # # # # # # # # # # # # # # # # # # # # # # # # # # # # # # # ",
"@ # # # # # # # # # # # # # # # # # # # # # # # # # # # # # # # # # # # "};
